<svg xmlns="http://www.w3.org/2000/svg" width="32" height="32"><path style="line-height:normal;text-indent:0;text-align:start;text-decoration-line:none;text-decoration-style:solid;text-decoration-color:#000;text-transform:none;block-progression:tb;white-space:normal;isolation:auto;mix-blend-mode:normal;solid-color:#000;solid-opacity:1" fill="#373449" d="M25.352 7v1.002c.349 0 .852 0 1.209.088a.893.893 0 0 1 .369.17c.06.057.086.088.086.228v5.002c0 .345.152.577.308.801.156.224.344.433.524.629.18.196.352.377.466.512l.02.025c-.115.117-.294.28-.482.467-.379.375-.858.855-.858 1.562v5.032c0 .14-.025.166-.105.232-.08.066-.242.138-.442.182-.4.087-.862.064-1.095.064v1c.113 0 .72.04 1.306-.088.293-.063.6-.166.867-.387.268-.22.47-.592.47-1.003v-5.032c0-.164.229-.523.562-.853.166-.165.342-.321.494-.477.076-.078.146-.154.213-.25.066-.095.152-.211.152-.431 0-.218-.074-.323-.135-.42a2.22 2.22 0 0 0-.203-.27c-.148-.175-.324-.358-.494-.543a5.558 5.558 0 0 1-.44-.525c-.106-.153-.128-.276-.128-.229V8.486c0-.38-.163-.731-.403-.957-.24-.225-.525-.339-.804-.41C26.25 6.977 25.673 7 25.352 7zM7.48 7.002c-.321 0-.899-.023-1.457.12-.279.07-.566.184-.806.41-.24.225-.4.576-.4.956v5.002c0-.047-.023.076-.13.229-.106.152-.269.34-.439.525-.17.185-.348.368-.496.543-.074.088-.14.172-.201.27-.06.098-.135.202-.135.42 0 .22.084.336.15.431.067.095.14.173.215.25.152.156.326.312.492.477.333.33.565.689.565.853v5.032c0 .411.2.783.467 1.003.267.221.576.324.869.387.585.127 1.193.088 1.306.088v-1c-.233 0-.696.022-1.095-.064-.2-.043-.363-.116-.444-.182-.08-.066-.103-.092-.103-.232v-5.032c0-.708-.481-1.187-.86-1.562-.189-.188-.367-.352-.482-.469l.02-.025c.114-.135.288-.316.468-.512a6.14 6.14 0 0 0 .524-.629c.156-.224.308-.456.308-.8V8.487c0-.14.025-.17.086-.228a.892.892 0 0 1 .368-.17c.356-.091.861-.088 1.21-.088v-1zm12.344.021a1.31 1.31 0 0 0-.857.528l-1.502 2.084.02.013-7.235 9.998-.906 5.612 5.033-2.643 7.207-10.013h.002l.31-.434 1.19-1.652a1.324 1.324 0 0 0-.299-1.838L20.805 7.25a1.311 1.311 0 0 0-.98-.227zm.158.979a.319.319 0 0 1 .239.06l1.982 1.426c.15.108.18.294.072.444l-1.193 1.658-2.512-1.78 1.207-1.675a.315.315 0 0 1 .205-.133zm-1.978 2.635 2.492 1.765-6.336 8.803-2.502-1.8 6.346-8.768zm-6.844 9.642 2.326 1.674-2.836 1.488.51-3.162z" color="#000" enable-background="accumulate" font-family="sans-serif" font-weight="400" overflow="visible"/></svg>