<?xml version="1.0" encoding="UTF-8" standalone="no"?> <svg width="64" height="64" viewBox="0 0 64 64" fill="none" xmlns="http://www.w3.org/2000/svg">
<path d="M20.33 43.73H5.92C5.14465 43.7326 4.40196 44.0425 3.85464 44.5917C3.30732 45.1409 3 45.8846 3 46.66V54.18C3 54.5634 3.07553 54.9431 3.22227 55.2974C3.36902 55.6517 3.5841 55.9736 3.85525 56.2447C4.1264 56.5159 4.44829 56.731 4.80256 56.8777C5.15683 57.0245 5.53654 57.1 5.92 57.1H12.13V59H9.9C9.63478 59 9.38043 59.1053 9.19289 59.2929C9.00536 59.4804 8.9 59.7348 8.9 60C8.9 60.2652 9.00536 60.5196 9.19289 60.7071C9.38043 60.8946 9.63478 61 9.9 61H16.35C16.6152 61 16.8696 60.8946 17.0571 60.7071C17.2446 60.5196 17.35 60.2652 17.35 60C17.35 59.7348 17.2446 59.4804 17.0571 59.2929C16.8696 59.1053 16.6152 59 16.35 59H14.13V57.1H20.33C21.1044 57.1 21.8471 56.7923 22.3948 56.2447C22.9424 55.6971 23.25 54.9544 23.25 54.18V46.66C23.25 45.8846 22.9427 45.1409 22.3954 44.5917C21.848 44.0425 21.1054 43.7326 20.33 43.73V43.73ZM21.25 54.18C21.25 54.424 21.1531 54.658 20.9805 54.8305C20.808 55.0031 20.574 55.1 20.33 55.1H5.92C5.676 55.1 5.442 55.0031 5.26946 54.8305C5.09693 54.658 5 54.424 5 54.18V46.66C4.99999 46.4151 5.09659 46.18 5.26885 46.0059C5.4411 45.8318 5.67509 45.7326 5.92 45.73H20.33C20.5749 45.7326 20.8089 45.8318 20.9812 46.0059C21.1534 46.18 21.25 46.4151 21.25 46.66V54.18Z" fill="black"/>
<path d="M50.08 43.73H35.67C34.8946 43.7326 34.152 44.0425 33.6046 44.5917C33.0573 45.1409 32.75 45.8846 32.75 46.66V54.18C32.75 54.5634 32.8255 54.9431 32.9723 55.2974C33.119 55.6517 33.3341 55.9736 33.6052 56.2447C33.8764 56.5159 34.1983 56.731 34.5526 56.8777C34.9068 57.0245 35.2865 57.1 35.67 57.1H41.87V59H39.65C39.3848 59 39.1304 59.1053 38.9429 59.2929C38.7554 59.4804 38.65 59.7348 38.65 60C38.65 60.2652 38.7554 60.5196 38.9429 60.7071C39.1304 60.8946 39.3848 61 39.65 61H46.1C46.3652 61 46.6196 60.8946 46.8071 60.7071C46.9946 60.5196 47.1 60.2652 47.1 60C47.1 59.7348 46.9946 59.4804 46.8071 59.2929C46.6196 59.1053 46.3652 59 46.1 59H43.87V57.1H50.08C50.8544 57.1 51.5971 56.7923 52.1448 56.2447C52.6924 55.6971 53 54.9544 53 54.18V46.66C53 45.8846 52.6927 45.1409 52.1454 44.5917C51.598 44.0425 50.8554 43.7326 50.08 43.73V43.73ZM51 54.18C51 54.424 50.9031 54.658 50.7305 54.8305C50.558 55.0031 50.324 55.1 50.08 55.1H35.67C35.426 55.1 35.192 55.0031 35.0195 54.8305C34.8469 54.658 34.75 54.424 34.75 54.18V46.66C34.75 46.4151 34.8466 46.18 35.0188 46.0059C35.1911 45.8318 35.4251 45.7326 35.67 45.73H50.08C50.3249 45.7326 50.5589 45.8318 50.7312 46.0059C50.9034 46.18 51 46.4151 51 46.66V54.18Z" fill="black"/>
<path d="M20.8 27.7999H27V29.6999H24.78C24.5148 29.6999 24.2604 29.8053 24.0729 29.9928C23.8854 30.1804 23.78 30.4347 23.78 30.6999C23.78 30.9651 23.8854 31.2195 24.0729 31.407C24.2604 31.5946 24.5148 31.6999 24.78 31.6999H31.22C31.4852 31.6999 31.7396 31.5946 31.9271 31.407C32.1146 31.2195 32.22 30.9651 32.22 30.6999C32.22 30.4347 32.1146 30.1804 31.9271 29.9928C31.7396 29.8053 31.4852 29.6999 31.22 29.6999H29V27.7999H35.2C35.9753 27.7999 36.7191 27.4926 37.2683 26.9453C37.8175 26.398 38.1273 25.6553 38.13 24.8799V17.3499C38.1273 16.5746 37.8175 15.8319 37.2683 15.2846C36.7191 14.7372 35.9753 14.4299 35.2 14.4299H20.8C20.0246 14.4299 19.2809 14.7372 18.7317 15.2846C18.1825 15.8319 17.8726 16.5746 17.87 17.3499V24.8799C17.8726 25.6553 18.1825 26.398 18.7317 26.9453C19.2809 27.4926 20.0246 27.7999 20.8 27.7999V27.7999ZM19.87 17.3499C19.8726 17.105 19.9718 16.871 20.1459 16.6988C20.32 16.5265 20.5551 16.4299 20.8 16.4299H35.2C35.4449 16.4299 35.68 16.5265 35.8541 16.6988C36.0282 16.871 36.1274 17.105 36.13 17.3499V24.8799C36.1274 25.1248 36.0282 25.3588 35.8541 25.5311C35.68 25.7033 35.4449 25.7999 35.2 25.7999H20.8C20.5551 25.7999 20.32 25.7033 20.1459 25.5311C19.9718 25.3588 19.8726 25.1248 19.87 24.8799V17.3499Z" fill="black"/>
<path d="M41.87 40.6C41.87 40.8653 41.9754 41.1196 42.1629 41.3071C42.3504 41.4947 42.6048 41.6 42.87 41.6C43.1352 41.6 43.3896 41.4947 43.5771 41.3071C43.7646 41.1196 43.87 40.8653 43.87 40.6V37C43.87 36.7348 43.7646 36.4805 43.5771 36.2929C43.3896 36.1054 43.1352 36 42.87 36H29V34.29C29 34.0248 28.8946 33.7705 28.7071 33.5829C28.5196 33.3954 28.2652 33.29 28 33.29C27.7348 33.29 27.4804 33.3954 27.2929 33.5829C27.1054 33.7705 27 34.0248 27 34.29V36H13.13C12.8648 36 12.6104 36.1054 12.4229 36.2929C12.2354 36.4805 12.13 36.7348 12.13 37V40.6C12.13 40.8653 12.2354 41.1196 12.4229 41.3071C12.6104 41.4947 12.8648 41.6 13.13 41.6C13.3952 41.6 13.6496 41.4947 13.8371 41.3071C14.0246 41.1196 14.13 40.8653 14.13 40.6V38H41.87V40.6Z" fill="black"/>
<path d="M45.15 3C44.8848 3 44.6304 3.10536 44.4429 3.29289C44.2553 3.48043 44.15 3.73478 44.15 4C44.15 4.26522 44.2553 4.51957 44.4429 4.70711C44.6304 4.89464 44.8848 5 45.15 5C48.8297 5.0185 52.3523 6.49324 54.9477 9.10174C57.5431 11.7102 59 15.2403 59 18.92C59 19.1852 59.1053 19.4396 59.2929 19.6271C59.4804 19.8146 59.7348 19.92 60 19.92C60.2652 19.92 60.5196 19.8146 60.7071 19.6271C60.8946 19.4396 61 19.1852 61 18.92C61.0027 14.709 59.3359 10.6688 56.3648 7.68463C53.3938 4.70049 49.3609 3.01588 45.15 3V3Z" fill="black"/>
<path d="M45.15 7.16992C44.8848 7.16992 44.6304 7.27528 44.4429 7.46281C44.2553 7.65035 44.15 7.90471 44.15 8.16992C44.15 8.43514 44.2553 8.68949 44.4429 8.87703C44.6304 9.06456 44.8848 9.16992 45.15 9.16992C47.7254 9.18577 50.19 10.22 52.0055 12.0468C53.8211 13.8735 54.84 16.3444 54.84 18.9199C54.84 19.1851 54.9453 19.4395 55.1329 19.627C55.3204 19.8146 55.5748 19.9199 55.84 19.9199C56.1052 19.9199 56.3596 19.8146 56.5471 19.627C56.7346 19.4395 56.84 19.1851 56.84 18.9199C56.8427 15.8132 55.6138 12.8321 53.4227 10.6297C51.2315 8.42725 48.2567 7.18315 45.15 7.16992V7.16992Z" fill="black"/>
<path d="M50.66 18.9199C50.66 19.1851 50.7653 19.4395 50.9529 19.627C51.1404 19.8145 51.3948 19.9199 51.66 19.9199C51.9252 19.9199 52.1796 19.8145 52.3671 19.627C52.5546 19.4395 52.66 19.1851 52.66 18.9199C52.6574 16.9261 51.8663 15.0144 50.4593 13.6018C49.0523 12.1892 47.1437 11.3904 45.15 11.3799V11.3799C44.8848 11.3799 44.6304 11.4852 44.4429 11.6728C44.2553 11.8603 44.15 12.1147 44.15 12.3799C44.15 12.6451 44.2553 12.8995 44.4429 13.087C44.6304 13.2745 44.8848 13.3799 45.15 13.3799C46.6125 13.393 48.0109 13.9819 49.0422 15.0188C50.0736 16.0558 50.6548 17.4574 50.66 18.9199V18.9199Z" fill="black"/>
<path d="M45.12 22.26C45.7865 22.26 46.4381 22.0624 46.9923 21.6921C47.5465 21.3218 47.9784 20.7955 48.2335 20.1797C48.4885 19.5639 48.5553 18.8863 48.4252 18.2326C48.2952 17.5789 47.9743 16.9784 47.5029 16.5071C47.0316 16.0358 46.4312 15.7148 45.7775 15.5848C45.1237 15.4547 44.4461 15.5215 43.8304 15.7765C43.2146 16.0316 42.6882 16.4636 42.3179 17.0177C41.9476 17.5719 41.75 18.2235 41.75 18.89C41.7526 19.783 42.1085 20.6386 42.74 21.2701C43.3714 21.9015 44.227 22.2574 45.12 22.26V22.26ZM45.12 17.52C45.391 17.52 45.6558 17.6004 45.8811 17.7509C46.1064 17.9014 46.282 18.1154 46.3857 18.3657C46.4894 18.6161 46.5165 18.8915 46.4637 19.1573C46.4108 19.423 46.2803 19.6672 46.0887 19.8588C45.8971 20.0504 45.653 20.1808 45.3873 20.2337C45.1215 20.2866 44.8461 20.2594 44.5957 20.1557C44.3454 20.052 44.1314 19.8764 43.9809 19.6512C43.8304 19.4259 43.75 19.161 43.75 18.89C43.7526 18.5275 43.8978 18.1805 44.1542 17.9242C44.4105 17.6678 44.7575 17.5226 45.12 17.52V17.52Z" fill="black"/>
</svg>
