<?xml version="1.0" encoding="utf-8"?>
<!-- Generator: Adobe Illustrator 26.3.1, SVG Export Plug-In . SVG Version: 6.00 Build 0)  -->
<svg version="1.1" id="Layer_1" xmlns="http://www.w3.org/2000/svg" xmlns:xlink="http://www.w3.org/1999/xlink" x="0px" y="0px"
	 viewBox="0 0 120 120" style="enable-background:new 0 0 120 120;" xml:space="preserve">
<style type="text/css">
	.st0{fill:#FFF2F3;}
	.st1{fill:#C12F33;}
</style>
<path class="st0" d="M60,0L60,0c33.1,0,60,26.9,60,60v0c0,33.1-26.9,60-60,60l0,0C26.9,120,0,93.1,0,60v0C0,26.9,26.9,0,60,0z"/>
<path class="st1" d="M57.2,80.3h-18c-0.6,0-1-0.4-1-1v-22c0-0.6,0.4-1,1-1h18c0.6,0,1,0.4,1,1v22C58.2,79.9,57.8,80.3,57.2,80.3z
	 M40.2,78.3h16v-20h-16V78.3z"/>
<path class="st1" d="M54.2,61.3h-12c-0.6,0-1-0.4-1-1s0.4-1,1-1h12c0.6,0,1,0.4,1,1S54.8,61.3,54.2,61.3z"/>
<path class="st1" d="M54.2,65.3h-10c-0.6,0-1-0.4-1-1c0-0.6,0.4-1,1-1h10c0.6,0,1,0.4,1,1C55.2,64.9,54.8,65.3,54.2,65.3z"/>
<path class="st1" d="M54.2,69.3h-10c-0.6,0-1-0.4-1-1s0.4-1,1-1h10c0.6,0,1,0.4,1,1S54.8,69.3,54.2,69.3z"/>
<path class="st1" d="M54.2,73.3h-10c-0.6,0-1-0.4-1-1s0.4-1,1-1h10c0.6,0,1,0.4,1,1S54.8,73.3,54.2,73.3z"/>
<path class="st1" d="M54.2,77.3h-10c-0.6,0-1-0.4-1-1s0.4-1,1-1h10c0.6,0,1,0.4,1,1S54.8,77.3,54.2,77.3z"/>
<path class="st1" d="M74.2,43.3c-3.3,0-6-2.7-6-6c0-3.3,2.7-6,6-6c3.3,0,6,2.7,6,6C80.2,40.6,77.5,43.3,74.2,43.3z M74.2,33.3
	c-2.2,0-4,1.8-4,4c0,2.2,1.8,4,4,4c2.2,0,4-1.8,4-4C78.2,35.1,76.4,33.3,74.2,33.3z"/>
<path class="st1" d="M81.2,54.3h-14c-0.6,0-1-0.4-1-1v-3c0-3.3,2.7-6,6-6h4c3.3,0,6,2.7,6,6v3C82.2,53.9,81.8,54.3,81.2,54.3z
	 M68.2,52.3h12v-2c0-2.2-1.8-4-4-4h-4c-2.2,0-4,1.8-4,4V52.3z"/>
<path class="st1" d="M61.2,34.3h-8c-0.6,0-1-0.4-1-1c0-0.6,0.4-1,1-1h8c0.6,0,1,0.4,1,1C62.2,33.9,61.8,34.3,61.2,34.3z"/>
<path class="st1" d="M61.2,38.3h-6c-0.6,0-1-0.4-1-1c0-0.6,0.4-1,1-1h6c0.6,0,1,0.4,1,1C62.2,37.9,61.8,38.3,61.2,38.3z"/>
<path class="st1" d="M61.2,42.3h-6c-0.6,0-1-0.4-1-1s0.4-1,1-1h6c0.6,0,1,0.4,1,1S61.8,42.3,61.2,42.3z"/>
<path class="st1" d="M61.2,46.3h-6c-0.6,0-1-0.4-1-1s0.4-1,1-1h6c0.6,0,1,0.4,1,1S61.8,46.3,61.2,46.3z"/>
<path class="st1" d="M61.2,50.3h-6c-0.6,0-1-0.4-1-1s0.4-1,1-1h6c0.6,0,1,0.4,1,1S61.8,50.3,61.2,50.3z"/>
<path class="st1" d="M89.2,85.3h-56c-0.6,0-1-0.4-1-1v-56c0-0.6,0.4-1,1-1h56c0.6,0,1,0.4,1,1v56C90.2,84.9,89.8,85.3,89.2,85.3z
	 M34.2,83.3h54v-54h-54V83.3z"/>
<path class="st1" d="M74.2,80.3c-6.6,0-12-5.4-12-12s5.4-12,12-12s12,5.4,12,12S80.9,80.3,74.2,80.3z M74.2,58.3
	c-5.5,0-10,4.5-10,10c0,5.5,4.5,10,10,10c5.5,0,10-4.5,10-10C84.2,62.8,79.8,58.3,74.2,58.3z"/>
<path class="st1" d="M49.2,50.3h-10c-0.6,0-1-0.4-1-1v-16c0-0.6,0.4-1,1-1h10c0.6,0,1,0.4,1,1v16C50.2,49.9,49.8,50.3,49.2,50.3z
	 M40.2,48.3h8v-14h-8V48.3z"/>
<path class="st1" d="M74.2,80.3c-0.6,0-1-0.4-1-1v-22c0-0.6,0.4-1,1-1s1,0.4,1,1v22C75.2,79.9,74.8,80.3,74.2,80.3z"/>
<path class="st1" d="M85.2,69.3h-22c-0.6,0-1-0.4-1-1s0.4-1,1-1h22c0.6,0,1,0.4,1,1S85.8,69.3,85.2,69.3z"/>
</svg>
