<?xml version="1.0" encoding="utf-8"?>
<!-- Generator: Adobe Illustrator 26.3.1, SVG Export Plug-In . SVG Version: 6.00 Build 0)  -->
<svg version="1.1" id="Layer_1" xmlns="http://www.w3.org/2000/svg" xmlns:xlink="http://www.w3.org/1999/xlink" x="0px" y="0px"
	 viewBox="0 0 120 120" style="enable-background:new 0 0 120 120;" xml:space="preserve">
<style type="text/css">
	.st0{fill:#FFF2F3;}
	.st1{fill:#C12F33;}
</style>
<path class="st0" d="M60,0L60,0c33.1,0,60,26.9,60,60v0c0,33.1-26.9,60-60,60l0,0C26.9,120,0,93.1,0,60v0C0,26.9,26.9,0,60,0z"/>
<g>
	<g>
		<path class="st1" d="M90.5,33.8H73.1l-10.9-6.4c-0.3-0.2-0.6-0.2-0.9,0l-10.9,6.4H33.1c-0.5,0-0.9,0.4-0.9,0.9v3.7
			c0,0.5,0.4,0.9,0.9,0.9H35v36.2c0,0.5,0.4,0.9,0.9,0.9h25v8.4h-2.8c-0.5,0-0.9,0.4-0.9,0.9c0,0.5,0.4,0.9,0.9,0.9h7.4
			c0.5,0,0.9-0.4,0.9-0.9c0-0.5-0.4-0.9-0.9-0.9h-2.8v-8.4h25c0.5,0,0.9-0.4,0.9-0.9V39.2h1.9c0.5,0,0.9-0.4,0.9-0.9v-3.7
			C91.4,34.2,91,33.8,90.5,33.8z M61.8,29.2l7.9,4.6H53.9L61.8,29.2z M89.6,37.5h-8.9c-0.5,0-0.9,0.4-0.9,0.9c0,0.5,0.4,0.9,0.9,0.9
			h6.1v35.3H36.7V39.2h40c0.5,0,0.9-0.4,0.9-0.9c0-0.5-0.4-0.9-0.9-0.9H34v-2h55.6V37.5z"/>
		<path class="st1" d="M50.7,57.7c4.6,0,8.3-3.7,8.3-8.3s-3.7-8.3-8.3-8.3s-8.3,3.7-8.3,8.3S46.1,57.7,50.7,57.7z M50.7,42.9
			c3.6,0,6.5,2.9,6.5,6.5S54.3,56,50.7,56c-3.6,0-6.5-2.9-6.5-6.5C44.2,45.8,47.1,42.9,50.7,42.9z"/>
		<path class="st1" d="M81,59.4c-0.9-0.9-2.3-0.9-3.2,0l-3,3l-3-3c-0.9-0.9-2.3-0.9-3.2,0c-0.9,0.9-0.9,2.3,0,3.2l3,3l-3,3
			c-0.9,0.9-0.9,2.3,0,3.2c0.9,0.9,2.3,0.9,3.2,0l3-3l3,3c0.9,0.9,2.3,0.9,3.2,0c0.9-0.9,0.9-2.3,0-3.2l-3-3l3-3
			C81.9,61.7,81.9,60.3,81,59.4z M79.7,61.4L76.1,65c-0.3,0.3-0.3,0.9,0,1.2l3.6,3.6c0.2,0.2,0.2,0.5,0,0.7c-0.2,0.2-0.5,0.2-0.8,0
			L75.4,67c-0.3-0.3-0.9-0.3-1.2,0l-3.6,3.6c-0.2,0.2-0.6,0.2-0.8,0c-0.2-0.2-0.2-0.5,0-0.7l3.6-3.6c0.3-0.3,0.3-0.9,0-1.2l-3.6-3.6
			c-0.2-0.2-0.2-0.5,0-0.7c0.2-0.2,0.5-0.2,0.8,0l3.6,3.6c0.3,0.3,0.9,0.3,1.2,0l3.6-3.6c0.2-0.2,0.6-0.2,0.8,0
			C79.9,60.9,79.9,61.2,79.7,61.4z"/>
		<path class="st1" d="M75.9,45.2c-0.3,0.4-0.2,0.9,0.1,1.2l2.7,2.2H67.3c-2.5,0-4.6,2.1-4.6,4.6v9.3c0,1.6-1.3,2.8-2.8,2.8H43.3
			c-0.5,0-0.9,0.4-0.9,0.9c0,0.5,0.4,0.9,0.9,0.9h16.7c2.5,0,4.6-2.1,4.6-4.6v-9.3c0-1.6,1.3-2.8,2.8-2.8h11.4l-2.7,2.2
			c-0.3,0.3-0.4,0.8-0.2,1.1c0.3,0.4,0.9,0.5,1.3,0.2l4.6-3.7c0.4-0.3,0.4-1,0-1.4l-4.6-3.7C76.8,44.8,76.2,44.8,75.9,45.2z"/>
	</g>
</g>
</svg>
