<?xml version="1.0" encoding="utf-8"?>
<!-- Generator: Adobe Illustrator 26.3.1, SVG Export Plug-In . SVG Version: 6.00 Build 0)  -->
<svg version="1.1" id="Layer_1" xmlns="http://www.w3.org/2000/svg" xmlns:xlink="http://www.w3.org/1999/xlink" x="0px" y="0px"
	 viewBox="0 0 120 120" style="enable-background:new 0 0 120 120;" xml:space="preserve">
<style type="text/css">
	.st0{fill:#FFF2F3;}
	.st1{fill-rule:evenodd;clip-rule:evenodd;fill:#C12F33;}
</style>
<path class="st0" d="M60.5,0L60.5,0c33.1,0,60,26.9,60,60v0c0,33.1-26.9,60-60,60l0,0c-33.1,0-60-26.9-60-60v0
	C0.5,26.9,27.4,0,60.5,0z"/>
<g id="Layer_x0020_1">
	<path class="st1" d="M67.4,50.9c-0.6,0-1-0.7-0.7-1.2l8.8-15.2c0.5-0.9,1.9-0.1,1.4,0.8L68,50.5C67.9,50.8,67.6,50.9,67.4,50.9z"/>
	<path class="st1" d="M76.6,48.6c-2.5,0-4.1-2.7-2.8-4.9c1.5-2.5,5.3-2,6,0.8C80.3,46.5,78.7,48.6,76.6,48.6L76.6,48.6z M76.6,43.6
		c-2.3,0-2.2,3.4,0,3.4C78.8,47,78.8,43.6,76.6,43.6z"/>
	<path class="st1" d="M66.9,43C66.9,43,66.9,43,66.9,43c-4.3,0-4.3-6.6,0-6.6C71.2,36.4,71.2,43,66.9,43z M66.9,38
		c-1.9,0-2.7,3,0,3.4c1.3,0.2,2.6-2.2,0.8-3.2C67.5,38.1,67.2,38,66.9,38z"/>
	<path class="st1" d="M43.2,79.3H26.9c-0.4,0-0.8-0.4-0.8-0.8V55.6c0-0.4,0.4-0.8,0.8-0.8h16.3c0.4,0,0.8,0.4,0.8,0.8v22.9
		C44,78.9,43.7,79.3,43.2,79.3z M27.7,77.7h14.7V56.4H27.7V77.7z"/>
	<path class="st1" d="M43.2,61.1H26.9c-1,0-1-1.6,0-1.6h16.3C44.3,59.5,44.3,61.1,43.2,61.1z"/>
	<path class="st1" d="M65.8,80.8c-1.6,0-3.7-0.1-5.9-0.8l-16.9-5c-1-0.3-0.6-1.8,0.5-1.5l16.9,5c2.3,0.6,4.6,0.7,6,0.7
		c2.7-0.1,3.2-0.6,5.4-1.6l18.8-8.1c3-1.3,1.9-6.1-2.3-5.1l-12.7,3.2c-1,0.3-1.4-1.3-0.4-1.5L88,63c6.1-1.6,8,6,3.3,8.1l-18.8,8.1
		C69.8,80.3,69.3,80.8,65.8,80.8L65.8,80.8z"/>
	<path class="st1" d="M71.9,71.3H59.8c-1,0-1-1.6,0-1.6h12.1c3.7,0,3.7-5.6,0-5.6h-8.7c-0.2,0-0.5-0.1-0.6-0.3c0,0-3.6-4.4-9.2-4.5
		l-10.1,0c-1,0-1-1.6,0-1.6h10.1c5.6,0.1,9.2,3.7,10.2,4.8h8.3c2.4,0,4.4,2,4.4,4.4S74.3,71.3,71.9,71.3z"/>
	<path class="st1" d="M71.7,57.7c-8.4,0-15.2-6.8-15.2-15.2c0-8.4,6.8-15.2,15.2-15.2S87,34.1,87,42.5S80.1,57.7,71.7,57.7z
		 M71.7,28.9c-7.5,0-13.6,6.1-13.6,13.6s6.1,13.6,13.6,13.6c7.5,0,13.6-6.1,13.6-13.6S79.3,28.9,71.7,28.9z"/>
	<path class="st1" d="M36.3,76.1c-3.9,0-3.9-5.9,0-5.9S40.2,76.1,36.3,76.1z M36.3,71.7c-1.8,0-1.8,2.8,0,2.8
		C38.1,74.5,38.1,71.7,36.3,71.7z"/>
</g>
</svg>
