<?xml version="1.0" encoding="utf-8"?>
<!-- Generator: Adobe Illustrator 26.3.1, SVG Export Plug-In . SVG Version: 6.00 Build 0)  -->
<svg version="1.1" id="Layer_1" xmlns="http://www.w3.org/2000/svg" xmlns:xlink="http://www.w3.org/1999/xlink" x="0px" y="0px"
	 viewBox="0 0 120 120" style="enable-background:new 0 0 120 120;" xml:space="preserve">
<style type="text/css">
	.st0{fill:#FFF2F3;}
	.st1{fill:#C12F33;}
</style>
<path class="st0" d="M60.5,0L60.5,0c33.1,0,60,26.9,60,60v0c0,33.1-26.9,60-60,60l0,0c-33.1,0-60-26.9-60-60v0
	C0.5,26.9,27.4,0,60.5,0z"/>
<g>
	<path class="st1" d="M42.4,33.5c-2.4,0-4.4,2-4.4,4.4c0,2.4,2,4.4,4.4,4.4s4.4-2,4.4-4.4C46.7,35.4,44.8,33.5,42.4,33.5z
		 M42.4,40.3c-1.3,0-2.4-1.1-2.4-2.4c0-1.3,1.1-2.4,2.4-2.4s2.4,1.1,2.4,2.4C44.8,39.2,43.7,40.3,42.4,40.3z"/>
	<circle class="st1" cx="80.6" cy="36.4" r="1"/>
	<circle class="st1" cx="76.7" cy="36.4" r="1"/>
	<circle class="st1" cx="82.5" cy="39.3" r="1"/>
	<circle class="st1" cx="78.6" cy="39.3" r="1"/>
	<circle class="st1" cx="72.8" cy="36.4" r="1"/>
	<circle class="st1" cx="74.8" cy="39.3" r="1"/>
	<circle class="st1" cx="69" cy="36.4" r="1"/>
	<circle class="st1" cx="70.9" cy="39.3" r="1"/>
	<circle class="st1" cx="65.1" cy="36.4" r="1"/>
	<circle class="st1" cx="67" cy="39.3" r="1"/>
	<path class="st1" d="M42.4,51.9c-2.4,0-4.4,2-4.4,4.4c0,2.4,2,4.4,4.4,4.4s4.4-2,4.4-4.4C46.7,53.8,44.8,51.9,42.4,51.9z
		 M42.4,58.6c-1.3,0-2.4-1.1-2.4-2.4c0-1.3,1.1-2.4,2.4-2.4s2.4,1.1,2.4,2.4C44.8,57.5,43.7,58.6,42.4,58.6z"/>
	<path class="st1" d="M42.4,70.2c-2.4,0-4.4,2-4.4,4.4s2,4.4,4.4,4.4s4.4-2,4.4-4.4S44.8,70.2,42.4,70.2z M42.4,77
		c-1.3,0-2.4-1.1-2.4-2.4c0-1.3,1.1-2.4,2.4-2.4s2.4,1.1,2.4,2.4C44.8,75.9,43.7,77,42.4,77z"/>
	<path class="st1" d="M90.2,43.5V32.1c0-2.5-2-4.5-4.5-4.5H36.7c-2.5,0-4.5,2-4.5,4.5v11.4c0,1.4,0.7,2.7,1.7,3.5
		c-1,0.8-1.7,2.1-1.7,3.5v11.4c0,1.4,0.7,2.7,1.7,3.5c-1,0.8-1.7,2.1-1.7,3.5v11.4c0,2.5,2,4.5,4.5,4.5h26.9
		c2.6,0.5,5.4,0.7,8.2,0.7c8.4,0,17.2-2.2,18.3-6.3c0.1-0.1,0.1-0.3,0.1-0.4V70v-0.4v-0.4v-8v-0.4v-0.4v-8.3v-0.4
		c0-0.1,0-0.3-0.1-0.4c-0.3-1.4-1.6-2.6-3.4-3.6C88.7,47.5,90.2,45.7,90.2,43.5z M34.2,61.9V50.5c0-1.4,1.1-2.5,2.5-2.5h20.2
		c-1.7,0.9-2.9,2.1-3.3,3.5c-0.1,0.1-0.1,0.3-0.1,0.4v0.4v8.3v0.4v0.4v3.1H36.7C35.3,64.4,34.2,63.3,34.2,61.9z M56,56
		c0,0,0.1,0.1,0.1,0.1c0.2,0.1,0.3,0.2,0.5,0.3c0.1,0,0.1,0.1,0.2,0.1c0.2,0.1,0.5,0.2,0.7,0.4c0,0,0.1,0,0.1,0.1
		c0.2,0.1,0.4,0.2,0.7,0.3c0.1,0,0.1,0.1,0.2,0.1c0.3,0.1,0.5,0.2,0.8,0.3c0,0,0,0,0,0c0.3,0.1,0.5,0.2,0.8,0.3c0.1,0,0.2,0,0.2,0.1
		c0.3,0.1,0.6,0.2,0.8,0.2c0,0,0,0,0.1,0c0.3,0.1,0.6,0.2,1,0.2c0.1,0,0.2,0,0.2,0.1c0.3,0.1,0.6,0.1,0.8,0.2c0.1,0,0.1,0,0.2,0
		c0.3,0.1,0.7,0.1,1,0.2c0.1,0,0.2,0,0.2,0c0.3,0,0.6,0.1,0.9,0.1c0.1,0,0.2,0,0.2,0c0.3,0,0.7,0.1,1,0.1c0.1,0,0.1,0,0.2,0
		c0.3,0,0.6,0.1,0.9,0.1c0.1,0,0.2,0,0.3,0c0.4,0,0.7,0,1.1,0.1c0.1,0,0.1,0,0.2,0c0.3,0,0.6,0,0.9,0c0.1,0,0.2,0,0.3,0
		c0.4,0,0.7,0,1.1,0c0.4,0,0.7,0,1.1,0c0.1,0,0.2,0,0.3,0c0.3,0,0.6,0,0.9,0c0.1,0,0.1,0,0.2,0c0.4,0,0.7,0,1.1-0.1
		c0.1,0,0.2,0,0.3,0c0.3,0,0.6-0.1,0.9-0.1c0.1,0,0.1,0,0.2,0c0.4,0,0.7-0.1,1-0.1c0.1,0,0.2,0,0.2,0c0.3,0,0.6-0.1,0.9-0.1
		c0.1,0,0.2,0,0.2,0c0.3-0.1,0.7-0.1,1-0.2c0.1,0,0.1,0,0.2,0c0.3-0.1,0.6-0.1,0.8-0.2c0.1,0,0.2,0,0.2-0.1c0.3-0.1,0.6-0.1,1-0.2
		c0,0,0,0,0.1,0c0.3-0.1,0.6-0.2,0.8-0.2c0.1,0,0.2,0,0.2-0.1c0.3-0.1,0.6-0.2,0.8-0.3c0,0,0,0,0,0c0.3-0.1,0.6-0.2,0.8-0.3
		c0.1,0,0.1-0.1,0.2-0.1c0.2-0.1,0.4-0.2,0.7-0.3c0,0,0.1,0,0.1-0.1c0.2-0.1,0.5-0.2,0.7-0.4c0.1,0,0.1-0.1,0.2-0.1
		c0.2-0.1,0.4-0.2,0.5-0.3c0,0,0.1-0.1,0.1-0.1c0.2-0.1,0.4-0.3,0.6-0.4c0,0,0,0,0,0v4.8c0,0.1,0,0.2,0,0.3c0,0.1,0,0.1,0,0.2
		c0,0.1,0,0.2-0.1,0.3c0,0.1,0,0.2-0.1,0.3c0,0.1-0.1,0.1-0.1,0.2c0,0.1-0.1,0.1-0.1,0.2c-0.1,0.1-0.2,0.2-0.3,0.3
		c0,0-0.1,0.1-0.1,0.1c-2,2-8.1,3.8-15.7,3.8c-7.6,0-13.6-1.8-15.7-3.8c0,0-0.1-0.1-0.1-0.1c-0.1-0.1-0.2-0.2-0.2-0.3
		c-0.1-0.1-0.1-0.2-0.1-0.2c0-0.1-0.1-0.1-0.1-0.2c0-0.1-0.1-0.2-0.1-0.3c0-0.1-0.1-0.2-0.1-0.3c0-0.1,0-0.1,0-0.2
		c0-0.1,0-0.3,0-0.4v-4.8c0,0,0,0,0,0C55.7,55.7,55.8,55.8,56,56z M88.2,70.2c0,0.1-0.1,0.1-0.1,0.2c0,0.1-0.1,0.1-0.1,0.2
		c-0.1,0.1-0.2,0.2-0.3,0.3c0,0-0.1,0.1-0.1,0.1c-2,2-8.1,3.8-15.7,3.8c-7.6,0-13.6-1.8-15.7-3.8c0,0-0.1-0.1-0.1-0.1
		c-0.1-0.1-0.2-0.2-0.2-0.3c-0.1-0.1-0.1-0.2-0.1-0.2c0-0.1-0.1-0.1-0.1-0.2c0-0.1-0.1-0.2-0.1-0.3c0-0.1,0-0.2,0-0.3v-0.1
		c0,0,0-0.1,0-0.1c0-0.1,0-0.2,0-0.2l0-4.7v-0.2c0,0,0.1,0.1,0.1,0.1c0.1,0.1,0.2,0.2,0.4,0.3c0.1,0.1,0.2,0.1,0.3,0.2
		c0.2,0.1,0.3,0.2,0.5,0.3c0,0,0,0,0,0c2,1.1,4.8,1.9,7.9,2.4c0,0,0,0,0.1,0c1,0.2,2,0.3,3,0.4c0.2,0,0.4,0,0.7,0.1
		c0.2,0,0.4,0,0.6,0c0.3,0,0.6,0,0.9,0c0.2,0,0.3,0,0.5,0c0.5,0,0.9,0,1.4,0c0.5,0,0.9,0,1.4,0c0.2,0,0.3,0,0.5,0c0.3,0,0.6,0,0.9,0
		c0.2,0,0.4,0,0.7,0c0.2,0,0.4,0,0.6-0.1c1-0.1,2.1-0.2,3.1-0.4c0,0,0,0,0,0c3.3-0.5,6.3-1.4,8.4-2.7c0.1-0.1,0.2-0.1,0.3-0.2
		c0.1-0.1,0.3-0.2,0.4-0.3c0,0,0.1-0.1,0.1-0.1v4.8c0,0.1,0,0.2,0,0.3c0,0.1,0,0.1,0,0.2c0,0.1,0,0.2-0.1,0.3
		C88.2,70,88.2,70.1,88.2,70.2z M36.7,82.8c-1.4,0-2.5-1.1-2.5-2.5V68.9c0-1.4,1.1-2.5,2.5-2.5h16.8v2.9v0.4V70v8.7v1h0.3
		c0,0,0,0.1,0.1,0.1c0,0.1,0.1,0.1,0.1,0.2c0.1,0.1,0.2,0.3,0.3,0.4c0.1,0.1,0.2,0.3,0.3,0.4c0.1,0.1,0.1,0.1,0.2,0.2
		c0.4,0.4,0.8,0.7,1.3,1.1c0,0,0,0,0.1,0c0.4,0.2,0.8,0.5,1.2,0.7L36.7,82.8L36.7,82.8z M88.3,78.4C88.3,78.5,88.3,78.5,88.3,78.4
		c-0.4,2.5-7.1,5.1-16.4,5.1c-3,0-5.7-0.3-8-0.7l0,0c-4.8-0.9-7.5-2.4-8.2-3.7c0,0,0,0,0,0c0-0.1-0.1-0.1-0.1-0.2
		c-0.1-0.1-0.1-0.2-0.1-0.4l0-5.6c0,0,0.1,0.1,0.1,0.1c0.1,0.1,0.2,0.2,0.4,0.3c0.1,0.1,0.2,0.1,0.3,0.2c0.2,0.1,0.3,0.2,0.5,0.3
		c0,0,0,0,0,0c2,1.1,4.8,1.9,7.9,2.4c0,0,0,0,0.1,0c1,0.2,2,0.3,3,0.4c0.2,0,0.4,0,0.7,0.1c0.2,0,0.4,0,0.6,0c0.3,0,0.6,0,0.9,0
		c0.2,0,0.3,0,0.5,0c0.5,0,0.9,0,1.4,0c0.5,0,0.9,0,1.4,0c0.2,0,0.3,0,0.5,0c0.3,0,0.6,0,0.9,0c0.2,0,0.4,0,0.7,0
		c0.2,0,0.4,0,0.6-0.1c1-0.1,2.1-0.2,3.1-0.4c0,0,0,0,0,0c3.3-0.5,6.3-1.4,8.4-2.7c0.1-0.1,0.2-0.1,0.3-0.2c0.1-0.1,0.3-0.2,0.4-0.3
		c0,0,0.1-0.1,0.1-0.1C88.3,72.9,88.3,78.4,88.3,78.4z M88.3,52.2c0,2.5-7,5.2-16.4,5.2c-9.4,0-16.4-2.7-16.4-5.2
		c0-0.1,0-0.2,0.1-0.4c0-0.1,0.1-0.3,0.2-0.4c0,0,0,0,0,0c0.3-0.5,1-1.1,2-1.7c0,0,0.1,0,0.1-0.1c0.2-0.1,0.4-0.2,0.5-0.3
		c0.2-0.1,0.4-0.2,0.7-0.3c0,0,0.1,0,0.1-0.1c1.1-0.4,2.5-0.8,4-1.2c0.5-0.1,1-0.2,1.5-0.3c0.1,0,0.3,0,0.4-0.1
		c4.3-0.7,9.4-0.7,13.7,0c0.1,0,0.3,0,0.4,0.1c0.5,0.1,1,0.2,1.5,0.3C85.3,48.9,88.3,50.6,88.3,52.2z M88.3,43.5
		c0,1.4-1.1,2.5-2.5,2.5h-4.5c-0.1,0-0.1,0-0.2,0c-0.6-0.1-1.3-0.3-2-0.4c-0.1,0-0.1,0-0.2,0c-2.3-0.4-4.7-0.5-7.1-0.5
		s-4.8,0.2-7.1,0.5c-0.1,0-0.1,0-0.2,0c-0.7,0.1-1.3,0.2-1.9,0.4c-0.1,0-0.1,0-0.2,0H36.7c-1.4,0-2.5-1.1-2.5-2.5V32.1
		c0-1.4,1.1-2.5,2.5-2.5h49.1c1.4,0,2.5,1.1,2.5,2.5V43.5z"/>
</g>
</svg>
