<?xml version="1.0" encoding="utf-8"?>
<!-- Generator: Adobe Illustrator 26.3.1, SVG Export Plug-In . SVG Version: 6.00 Build 0)  -->
<svg version="1.1" id="Layer_1" xmlns="http://www.w3.org/2000/svg" xmlns:xlink="http://www.w3.org/1999/xlink" x="0px" y="0px"
	 viewBox="0 0 120 120" style="enable-background:new 0 0 120 120;" xml:space="preserve">
<style type="text/css">
	.st0{fill:#FFF2F3;}
	.st1{fill:#C12F33;}
</style>
<path class="st0" d="M60.5,0L60.5,0c33.1,0,60,26.9,60,60v0c0,33.1-26.9,60-60,60l0,0c-33.1,0-60-26.9-60-60v0
	C0.5,26.9,27.4,0,60.5,0z"/>
<path class="st1" d="M83.3,55.5H71c-0.3,0-0.5,0.1-0.7,0.3C70.1,56,70,56.3,70,56.5v4.1c0,0.3,0.1,0.5,0.3,0.7
	c0.2,0.2,0.5,0.3,0.7,0.3h12.4c0.3,0,0.5-0.1,0.7-0.3c0.2-0.2,0.3-0.5,0.3-0.7v-4.1c0-0.3-0.1-0.5-0.3-0.7
	C83.9,55.6,83.6,55.5,83.3,55.5z M82.3,59.6H72v-2.1h10.3V59.6z"/>
<path class="st1" d="M67.9,59.6h-2.1v2.1h2.1V59.6z"/>
<path class="st1" d="M64.8,59.6h-2.1v2.1h2.1V59.6z"/>
<path class="st1" d="M61.7,59.6h-2.1v2.1h2.1V59.6z"/>
<path class="st1" d="M58.6,59.6h-2.1v2.1h2.1V59.6z"/>
<path class="st1" d="M55.6,59.6h-2.1v2.1h2.1V59.6z"/>
<path class="st1" d="M67.9,55.5h-2.1v2.1h2.1V55.5z"/>
<path class="st1" d="M64.8,55.5h-2.1v2.1h2.1V55.5z"/>
<path class="st1" d="M61.7,55.5h-2.1v2.1h2.1V55.5z"/>
<path class="st1" d="M58.6,55.5h-2.1v2.1h2.1V55.5z"/>
<path class="st1" d="M55.6,55.5h-2.1v2.1h2.1V55.5z"/>
<path class="st1" d="M92.6,37h-3.9l-0.2-0.4l2.7-2.7c0.2-0.2,0.3-0.5,0.3-0.7c0-0.3-0.1-0.5-0.3-0.7L86.9,28
	c-0.2-0.2-0.5-0.3-0.7-0.3c-0.3,0-0.5,0.1-0.7,0.3l-2.7,2.7l-0.4-0.2v-3.9c0-0.3-0.1-0.5-0.3-0.7c-0.2-0.2-0.5-0.3-0.7-0.3h-6.2
	c-0.3,0-0.5,0.1-0.7,0.3c-0.2,0.2-0.3,0.5-0.3,0.7v3.9l-0.4,0.2L70.9,28c-0.2-0.2-0.5-0.3-0.7-0.3s-0.5,0.1-0.7,0.3l-4.4,4.4
	c-0.2,0.2-0.3,0.5-0.3,0.7c0,0.3,0.1,0.5,0.3,0.7l2.7,2.7L67.6,37h-3.9c-0.3,0-0.5,0.1-0.7,0.3c-0.2,0.2-0.3,0.5-0.3,0.7v3.1h-3.5
	c-1,0-1.9,0.3-2.8,0.8c-0.8,0.5-1.5,1.3-1.9,2.2l-1.9,4.2h-5.3c-0.3,0-0.5,0.1-0.7,0.3c-0.2,0.2-0.3,0.5-0.3,0.7v5.1
	c-0.2,0.1-0.5,0.2-0.7,0.3L42,51.1c-0.2-0.2-0.5-0.3-0.7-0.3s-0.5,0.1-0.7,0.3l-5.8,5.8c-0.2,0.2-0.3,0.5-0.3,0.7
	c0,0.3,0.1,0.5,0.3,0.7l3.6,3.6c-0.1,0.2-0.2,0.5-0.3,0.7h-5.1c-0.3,0-0.5,0.1-0.7,0.3c-0.2,0.2-0.3,0.5-0.3,0.7V72
	c0,0.3,0.1,0.5,0.3,0.7c0.2,0.2,0.5,0.3,0.7,0.3H38c0.1,0.2,0.2,0.5,0.3,0.7l-3.6,3.6c-0.2,0.2-0.3,0.5-0.3,0.7
	c0,0.3,0.1,0.5,0.3,0.7l5.8,5.8c0.2,0.2,0.5,0.3,0.7,0.3s0.5-0.1,0.7-0.3l3.6-3.6c0.2,0.1,0.5,0.2,0.7,0.3v5.1
	c0,0.3,0.1,0.5,0.3,0.7c0.2,0.2,0.5,0.3,0.7,0.3h8.2c0.3,0,0.5-0.1,0.7-0.3c0.2-0.2,0.3-0.5,0.3-0.7v-5.1c0.2-0.1,0.5-0.2,0.7-0.3
	l3.6,3.6c0.2,0.2,0.5,0.3,0.7,0.3s0.5-0.1,0.7-0.3l5.8-5.8c0.2-0.2,0.3-0.5,0.3-0.7c0-0.3-0.1-0.5-0.3-0.7l-3.6-3.6
	c0.1-0.2,0.2-0.5,0.3-0.7H70c0.3,0,0.5-0.1,0.7-0.3c0.2-0.2,0.3-0.5,0.3-0.7v-6.2h12.4c0.7,0,1.3-0.1,2-0.4c0.6-0.3,1.2-0.6,1.7-1.1
	c0.5-0.5,0.9-1,1.1-1.7c0.3-0.6,0.4-1.3,0.4-2v-4.2c0-0.7-0.2-1.5-0.5-2.2l-0.4-0.8l3.6-3.6c0.2-0.2,0.3-0.5,0.3-0.7
	s-0.1-0.5-0.3-0.7l-2.7-2.7l0.2-0.4h3.9c0.3,0,0.5-0.1,0.7-0.3c0.2-0.2,0.3-0.5,0.3-0.7V38c0-0.3-0.1-0.5-0.3-0.7
	C93.1,37.1,92.9,37,92.6,37z M54.2,49.7l2.2-4.8c0.2-0.5,0.6-1,1.1-1.3c0.5-0.3,1.1-0.5,1.7-0.5h19.4c0.6,0,1.2,0.2,1.7,0.5
	c0.5,0.3,0.9,0.8,1.1,1.3l3,6.6c-0.4-0.1-0.8-0.1-1.1-0.1H54.5c-0.4,0-0.8,0-1.2,0.1L54.2,49.7z M74.1,41.1c0-1.1,0.4-2.1,1.2-2.9
	c0.8-0.8,1.8-1.2,2.9-1.2s2.1,0.4,2.9,1.2c0.8,0.8,1.2,1.8,1.2,2.9c0,0.5-0.1,0.9-0.2,1.3c-0.9-0.9-2.2-1.3-3.4-1.3H74.1z
	 M68.9,70.9h-4.8c-0.2,0-0.4,0.1-0.6,0.2c-0.2,0.1-0.3,0.3-0.4,0.5c-0.2,0.6-0.5,1.2-0.8,1.8c-0.1,0.2-0.1,0.4-0.1,0.6
	s0.1,0.4,0.3,0.6L66,78l-4.4,4.4L58.3,79c-0.2-0.2-0.4-0.3-0.6-0.3s-0.4,0-0.6,0.1c-0.6,0.3-1.2,0.5-1.8,0.8
	c-0.2,0.1-0.4,0.2-0.5,0.4c-0.1,0.2-0.2,0.4-0.2,0.6v4.8h-6.2v-4.8c0-0.2-0.1-0.4-0.2-0.6c-0.1-0.2-0.3-0.3-0.5-0.4
	c-0.6-0.2-1.2-0.5-1.8-0.8c-0.2-0.1-0.4-0.1-0.6-0.1s-0.4,0.1-0.6,0.3l-3.4,3.4L36.9,78l3.4-3.4c0.2-0.2,0.3-0.4,0.3-0.6
	s0-0.4-0.1-0.6c-0.3-0.6-0.5-1.2-0.8-1.8c-0.1-0.2-0.2-0.4-0.4-0.5c-0.2-0.1-0.4-0.2-0.6-0.2h-4.8v-6.2h4.8c0.2,0,0.4-0.1,0.6-0.2
	c0.2-0.1,0.3-0.3,0.4-0.5c0.2-0.6,0.5-1.2,0.8-1.8c0.1-0.2,0.1-0.4,0.1-0.6c0-0.2-0.1-0.4-0.3-0.6l-3.4-3.4l4.4-4.4l3.4,3.4
	c0.2,0.2,0.4,0.3,0.6,0.3s0.4,0,0.6-0.1c0.6-0.3,1.2-0.5,1.8-0.8c0.2-0.1,0.4-0.2,0.5-0.4c0.1-0.2,0.2-0.4,0.2-0.6v-4.8h3.3
	l-1.8,3.9c-0.3,0.7-0.5,1.4-0.5,2.2v2.4c-1.8,0.4-3.4,1.3-4.7,2.7c-1.3,1.3-2.1,3-2.4,4.8c-0.3,1.8-0.1,3.7,0.7,5.4
	c0.7,1.7,2,3.1,3.5,4.1s3.4,1.5,5.2,1.4c1.8-0.1,3.6-0.6,5.1-1.7c1.5-1.1,2.6-2.6,3.3-4.3c0.7-1.7,0.8-3.6,0.4-5.4h8.5V70.9z
	 M54.5,65.8h3.8c0.2,0.7,0.3,1.4,0.3,2.1c0,1.3-0.4,2.6-1.1,3.8c-0.7,1.1-1.7,2.1-2.9,2.7s-2.5,0.9-3.9,0.7
	c-1.3-0.1-2.6-0.6-3.7-1.4c-1.1-0.8-1.9-1.9-2.4-3.1c-0.5-1.2-0.6-2.6-0.4-3.9c0.2-1.3,0.8-2.5,1.7-3.5c0.9-1,2-1.7,3.3-2.1
	c0.1,1.3,0.6,2.5,1.6,3.4C51.9,65.3,53.2,65.8,54.5,65.8z M86.4,60.6c0,0.8-0.3,1.6-0.9,2.2c-0.6,0.6-1.4,0.9-2.2,0.9H54.5
	c-0.8,0-1.6-0.3-2.2-0.9c-0.6-0.6-0.9-1.4-0.9-2.2v-4.1c0-0.8,0.3-1.6,0.9-2.2s1.4-0.9,2.2-0.9h28.8c0.8,0,1.6,0.3,2.2,0.9
	s0.9,1.4,0.9,2.2V60.6z M91.6,43.1H88c-0.2,0-0.4,0.1-0.6,0.2c-0.2,0.1-0.3,0.3-0.4,0.5c-0.2,0.5-0.4,1-0.6,1.5
	c-0.1,0.2-0.1,0.4-0.1,0.6c0,0.2,0.1,0.4,0.3,0.6l2.5,2.5l-2.4,2.4l-3.3-7.2c0.6-1,0.9-2.1,0.9-3.2c0-1.6-0.7-3.2-1.8-4.4
	c-1.2-1.2-2.7-1.8-4.4-1.8s-3.2,0.7-4.4,1.8c-1.2,1.2-1.8,2.7-1.8,4.4h-7.2V39h3.6c0.2,0,0.4-0.1,0.6-0.2c0.2-0.1,0.3-0.3,0.4-0.5
	c0.2-0.5,0.4-1,0.6-1.5c0.1-0.2,0.1-0.4,0.1-0.6c0-0.2-0.1-0.4-0.3-0.6l-2.5-2.5l2.9-2.9l2.5,2.5c0.2,0.2,0.4,0.3,0.6,0.3
	c0.2,0,0.4,0,0.6-0.1c0.5-0.3,1-0.5,1.5-0.6c0.2-0.1,0.4-0.2,0.5-0.4c0.1-0.2,0.2-0.4,0.2-0.6v-3.6h4.1v3.6c0,0.2,0.1,0.4,0.2,0.6
	c0.1,0.2,0.3,0.3,0.5,0.4c0.5,0.2,1,0.4,1.5,0.6c0.2,0.1,0.4,0.1,0.6,0.1c0.2,0,0.4-0.1,0.6-0.3l2.5-2.5l2.9,2.9l-2.5,2.5
	c-0.2,0.2-0.3,0.4-0.3,0.6c0,0.2,0,0.4,0.1,0.6c0.3,0.5,0.5,1,0.6,1.5c0.1,0.2,0.2,0.4,0.4,0.5C87.6,39,87.8,39,88,39h3.6V43.1z"/>
<path class="st1" d="M86.4,67.9c-0.3,0-0.5,0.1-0.7,0.3s-0.3,0.5-0.3,0.7v11.3H70c-0.3,0-0.5,0.1-0.7,0.3c-0.2,0.2-0.3,0.5-0.3,0.7
	c0,0.3,0.1,0.5,0.3,0.7c0.2,0.2,0.5,0.3,0.7,0.3h16.5c0.3,0,0.5-0.1,0.7-0.3c0.2-0.2,0.3-0.5,0.3-0.7V68.9c0-0.3-0.1-0.5-0.3-0.7
	C87,68,86.7,67.9,86.4,67.9z"/>
<path class="st1" d="M39.1,49.3c0.3,0,0.5-0.1,0.7-0.3c0.2-0.2,0.3-0.5,0.3-0.7V32.9h21.6c0.3,0,0.5-0.1,0.7-0.3
	c0.2-0.2,0.3-0.5,0.3-0.7s-0.1-0.5-0.3-0.7c-0.2-0.2-0.5-0.3-0.7-0.3H39.1c-0.3,0-0.5,0.1-0.7,0.3c-0.2,0.2-0.3,0.5-0.3,0.7v16.5
	c0,0.3,0.1,0.5,0.3,0.7C38.5,49.2,38.8,49.3,39.1,49.3z"/>
</svg>
