<?xml version="1.0" encoding="utf-8"?>
<!-- Generator: Adobe Illustrator 26.3.1, SVG Export Plug-In . SVG Version: 6.00 Build 0)  -->
<svg version="1.1" id="Layer_1" xmlns="http://www.w3.org/2000/svg" xmlns:xlink="http://www.w3.org/1999/xlink" x="0px" y="0px"
	 viewBox="0 0 120 120" style="enable-background:new 0 0 120 120;" xml:space="preserve">
<style type="text/css">
	.st0{fill:#FFF2F3;}
	.st1{fill:#C12F33;}
</style>
<path class="st0" d="M60.5,0L60.5,0c33.1,0,60,26.9,60,60v0c0,33.1-26.9,60-60,60l0,0c-33.1,0-60-26.9-60-60v0
	C0.5,26.9,27.4,0,60.5,0z"/>
<g id="migrating">
	<path class="st1" d="M83.4,78.2h1.9c0-2.1-1.7-3.8-3.8-3.8v1.9C82.6,76.3,83.4,77.2,83.4,78.2z"/>
	<rect x="50.4" y="52.7" class="st1" width="1.9" height="1.9"/>
	<rect x="50.4" y="58.4" class="st1" width="1.9" height="1.9"/>
	<rect x="50.4" y="64" class="st1" width="1.9" height="1.9"/>
	<path class="st1" d="M89.1,59.3v-3.8c0-0.4-0.3-0.8-0.7-0.9l-1.2-0.3l0.6-1.1c0.2-0.4,0.2-0.8-0.1-1.2L85,49.4
		c-0.3-0.3-0.8-0.4-1.2-0.1l-1.1,0.6l-0.3-1.2C82.3,48.3,82,48,81.5,48h-3.8c-0.4,0-0.8,0.3-0.9,0.7l-0.3,1.2l-0.7-0.4
		c0-0.2,0-0.4,0-0.6c0-2.9-2.2-5.3-5.1-5.6c0.2-0.4,0.4-0.9,0.4-1.4c0-4.4-3.6-8-8-8c-2.1,0-4,0.8-5.5,2.2c-1.4-5.6-7-9-12.6-7.6
		s-9,7-7.6,12.6c0.2,0.8,0.5,1.5,0.8,2.2h-0.2c-3.1,0-5.7,2.5-5.7,5.7c0,3.1,2.5,5.7,5.7,5.7h3.8v6.1c-2.5,2.7-3.4,6.4-2.4,10
		c-4.2,0.3-7.3,3.9-7,8.1c0.3,4,3.6,7,7.5,7h41.6c4.2,0,7.6-3.4,7.6-7.6s-3.4-7.6-7.6-7.6h-0.8c0.7-1.3,1.2-2.7,1.5-4.1
		c0.1-0.1,0.2-0.3,0.2-0.4l0.3-1.2l1.1,0.6c0.4,0.2,0.8,0.2,1.2-0.1l2.7-2.7c0.3-0.3,0.4-0.8,0.1-1.2l-0.6-1.1l1.2-0.3
		C88.8,60.1,89.1,59.7,89.1,59.3z M34.3,48.9c0-2.1,1.7-3.8,3.8-3.8H40c0.5,0,0.9-0.4,0.9-0.9c0-0.2-0.1-0.4-0.2-0.6
		c-2.8-3.8-2.1-9.1,1.7-11.9c3.8-2.8,9.1-2.1,11.9,1.7c1.1,1.4,1.7,3.2,1.7,4.9c0,0.5,0.4,0.9,1,0.9c0.3,0,0.6-0.2,0.8-0.5
		c1.7-2.9,5.4-4,8.4-2.3c1.9,1.1,3.1,3.1,3.1,5.3c-0.1,0.4-0.2,0.8-0.4,1.1c-0.2,0.3-0.3,0.6-0.4,0.9c-0.2,0.5,0.1,1,0.6,1.2
		c0.1,0,0.2,0.1,0.3,0.1h0.9c2.1,0,3.8,1.7,3.8,3.8c0,0.3,0,0.6-0.1,0.9l-1.4,1.4c-3.5-0.9-7.2-0.3-10.3,1.6c-0.5,0.3-1,0.7-1.5,1.1
		v-3.1h2.8c0.5,0,0.9-0.4,0.9-0.9v-8.5h-1.9v7.6h-1.9V48c0-2.4-4.2-3.6-8.5-3.8v-5.7c0-0.5-0.4-0.9-0.9-0.9h-2
		c-0.5-2-2.6-3.2-4.6-2.7s-3.2,2.6-2.7,4.6s2.6,3.2,4.6,2.7c1.3-0.3,2.4-1.4,2.7-2.7h1.1v4.7c-4.3,0.2-8.5,1.3-8.5,3.8v4.7h-3.8
		C36,52.7,34.3,51,34.3,48.9z M51.3,66.9c-5,0-7.6-1.4-7.6-1.9v-3.3c2.4,1,5,1.5,7.6,1.4c2.6,0.1,5.2-0.4,7.6-1.4V65
		C58.9,65.5,56.3,66.9,51.3,66.9z M51.3,46.1c5,0,7.6,1.4,7.6,1.9c0,0.5-2.6,1.9-7.6,1.9s-7.6-1.4-7.6-1.9
		C43.7,47.5,46.3,46.1,51.3,46.1z M43.7,50.4c2.4,1,5,1.5,7.6,1.4c2.6,0.1,5.2-0.4,7.6-1.4v3.3c0,0.5-2.6,1.9-7.6,1.9
		s-7.6-1.4-7.6-1.9V50.4z M47.5,38.5c0,1-0.8,1.9-1.9,1.9c-1,0-1.9-0.8-1.9-1.9c0-1,0.8-1.9,1.9-1.9C46.7,36.6,47.5,37.5,47.5,38.5z
		 M43.7,56c2.4,1,5,1.5,7.6,1.4c2.6,0.1,5.2-0.4,7.6-1.4v3.3c0,0.5-2.6,1.9-7.6,1.9s-7.6-1.4-7.6-1.9V56z M81.5,72.5
		c3.1,0,5.7,2.5,5.7,5.7c0,3.1-2.5,5.7-5.7,5.7H40c-3.1,0-5.7-2.5-5.7-5.7c0-3.1,2.5-5.7,5.7-5.7h0.8c0.5,0,0.9-0.4,0.9-0.9
		c0-0.1,0-0.3-0.1-0.4c-1-2.3-0.9-5,0.2-7.3V65c0,1.3,1.1,2.2,2.8,2.8v12.3h-2.8V82h3.8c0.5,0,0.9-0.4,0.9-0.9V68.3
		c1.2,0.3,2.5,0.4,3.8,0.4v9.5c0,0.5,0.4,0.9,0.9,0.9h8.6c0.5,2,2.6,3.2,4.6,2.7s3.2-2.6,2.7-4.6c-0.5-2-2.6-3.2-4.6-2.7
		c-1.3,0.3-2.4,1.4-2.7,2.7h-7.7v-8.5c4.3-0.2,8.5-1.3,8.5-3.8v-1.9h3.8v8.5c0,0.5,0.4,0.9,0.9,0.9h4.7v-1.9h-3.8v-8.5
		c0-0.5-0.4-0.9-0.9-0.9h-4.7v-4.6c0.7-0.8,1.6-1.5,2.5-2.1c2.4-1.5,5.3-2.1,8.1-1.5c0,0.1,0.1,0.2,0.1,0.3l0.6,1.1l-1.2,0.3
		c-0.4,0.1-0.7,0.5-0.7,0.9v3.8c0,0.4,0.3,0.8,0.7,0.9l1.2,0.3l-0.6,1.1c-0.2,0.4-0.2,0.8,0.1,1.2l2.7,2.7c0.3,0.3,0.8,0.4,1.2,0.1
		l1.1-0.6l0.3,1.2c0.1,0.4,0.5,0.7,0.9,0.7h2.5c-0.4,1.5-1.1,2.9-2,4.1c-0.3,0.4-0.3,1,0.2,1.3c0.2,0.1,0.4,0.2,0.6,0.2H81.5z
		 M61.7,78.2c0-1,0.8-1.9,1.9-1.9c1,0,1.9,0.8,1.9,1.9c0,1-0.8,1.9-1.9,1.9C62.5,80.1,61.7,79.2,61.7,78.2z M87.2,58.6L85.5,59
		c-0.5,0.1-0.8,0.6-0.7,1.1c0,0.1,0.1,0.2,0.1,0.3l0.9,1.5l-1.6,1.6l-1.5-0.9c-0.4-0.3-1-0.1-1.3,0.3c0,0.1-0.1,0.2-0.1,0.3L80.8,65
		h-2.3l-0.4-1.7c-0.1-0.5-0.6-0.8-1.1-0.7c-0.1,0-0.2,0.1-0.3,0.1l-1.5,0.9L73.5,62l0.9-1.5c0.3-0.4,0.1-1-0.3-1.3
		c-0.1,0-0.2-0.1-0.3-0.1l-1.7-0.4v-2.3l1.7-0.4c0.5-0.1,0.8-0.6,0.7-1.1c0-0.1-0.1-0.2-0.1-0.3l-0.9-1.5l1.6-1.6l1.5,0.9
		c0.4,0.3,1,0.1,1.3-0.3c0-0.1,0.1-0.2,0.1-0.3l0.4-1.7h2.3l0.4,1.7c0.1,0.5,0.6,0.8,1.1,0.7c0.1,0,0.2-0.1,0.3-0.1l1.5-0.9l1.6,1.6
		l-0.9,1.5c-0.3,0.4-0.1,1,0.3,1.3c0.1,0,0.2,0.1,0.3,0.1l1.7,0.4V58.6z"/>
	<path class="st1" d="M79.6,53.6c-2.1,0-3.8,1.7-3.8,3.8c0,2.1,1.7,3.8,3.8,3.8s3.8-1.7,3.8-3.8C83.4,55.3,81.7,53.6,79.6,53.6z
		 M79.6,59.3c-1,0-1.9-0.8-1.9-1.9c0-1,0.8-1.9,1.9-1.9c1,0,1.9,0.8,1.9,1.9C81.5,58.5,80.7,59.3,79.6,59.3z"/>
	<rect x="62.6" y="37.6" class="st1" width="1.9" height="1.9"/>
	<rect x="72.1" y="70.6" class="st1" width="1.9" height="1.9"/>
	<rect x="38.1" y="80.1" class="st1" width="1.9" height="1.9"/>
</g>
</svg>
