<?xml version="1.0" encoding="utf-8"?>
<!-- Generator: Adobe Illustrator 26.3.1, SVG Export Plug-In . SVG Version: 6.00 Build 0)  -->
<svg version="1.1" id="Layer_1" xmlns="http://www.w3.org/2000/svg" xmlns:xlink="http://www.w3.org/1999/xlink" x="0px" y="0px"
	 viewBox="0 0 120 120" style="enable-background:new 0 0 120 120;" xml:space="preserve">
<style type="text/css">
	.st0{fill:#FFF2F3;}
	.st1{fill:#C12F33;}
</style>
<path class="st0" d="M60.5,0L60.5,0c33.1,0,60,26.9,60,60v0c0,33.1-26.9,60-60,60l0,0c-33.1,0-60-26.9-60-60v0
	C0.5,26.9,27.4,0,60.5,0z"/>
<g>
	<path class="st1" d="M86.1,75.4h-3.8V49.8c0-1.3-0.5-2.5-1.4-3.4C80,45.5,78.8,45,77.5,45h-6.7c-0.3,0-0.5,0.1-0.7,0.3
		c-0.2,0.2-0.3,0.4-0.3,0.7s0.1,0.5,0.3,0.7c0.2,0.2,0.4,0.3,0.7,0.3h6.7c0.8,0,1.5,0.3,2,0.8c0.5,0.5,0.8,1.3,0.8,2v25.7H65.2
		c-0.3,0-0.5,0.1-0.7,0.3c-0.2,0.2-0.3,0.4-0.3,0.7v1.9H52.8v-1.9c0-0.3-0.1-0.5-0.3-0.7c-0.2-0.2-0.4-0.3-0.7-0.3H31
		c-0.3,0-0.5,0.1-0.7,0.3c-0.2,0.2-0.3,0.4-0.3,0.7v3.8c0,1.3,0.5,2.5,1.4,3.4c0.9,0.9,2.1,1.4,3.4,1.4h13.3c0.3,0,0.5-0.1,0.7-0.3
		S49,84.2,49,84s-0.1-0.5-0.3-0.7c-0.2-0.2-0.4-0.3-0.7-0.3H34.8c-0.8,0-1.5-0.3-2-0.8c-0.5-0.5-0.8-1.3-0.8-2v-2.9h19v1.9
		c0,0.3,0.1,0.5,0.3,0.7c0.2,0.2,0.4,0.3,0.7,0.3h13.3c0.3,0,0.5-0.1,0.7-0.3c0.2-0.2,0.3-0.4,0.3-0.7v-1.9h19v2.9
		c0,0.8-0.3,1.5-0.8,2S83,83,82.3,83H51.9c-0.3,0-0.5,0.1-0.7,0.3c-0.2,0.2-0.3,0.4-0.3,0.7s0.1,0.5,0.3,0.7s0.4,0.3,0.7,0.3h30.4
		c1.3,0,2.5-0.5,3.4-1.4c0.9-0.9,1.4-2.1,1.4-3.4v-3.8c0-0.3-0.1-0.5-0.3-0.7C86.6,75.5,86.3,75.4,86.1,75.4z"/>
	<path class="st1" d="M82.3,81.1c0.5,0,1-0.4,1-1s-0.4-1-1-1s-1,0.4-1,1S81.8,81.1,82.3,81.1z"/>
	<path class="st1" d="M78.5,81.1c0.5,0,1-0.4,1-1s-0.4-1-1-1c-0.5,0-1,0.4-1,1S78,81.1,78.5,81.1z"/>
	<path class="st1" d="M38.6,81.1c0.5,0,1-0.4,1-1s-0.4-1-1-1c-0.5,0-1,0.4-1,1S38,81.1,38.6,81.1z"/>
	<path class="st1" d="M34.8,81.1c0.5,0,1-0.4,1-1s-0.4-1-1-1c-0.5,0-1,0.4-1,1S34.2,81.1,34.8,81.1z"/>
	<path class="st1" d="M62.3,61.2c0.5,0,1-0.4,1-1c0-0.5-0.4-1-1-1c-0.5,0-1,0.4-1,1C61.4,60.7,61.8,61.2,62.3,61.2z"/>
	<path class="st1" d="M66.1,61.2c0.5,0,1-0.4,1-1c0-0.5-0.4-1-1-1c-0.5,0-1,0.4-1,1C65.2,60.7,65.6,61.2,66.1,61.2z"/>
	<path class="st1" d="M69.9,61.2c0.5,0,1-0.4,1-1c0-0.5-0.4-1-1-1s-1,0.4-1,1C69,60.7,69.4,61.2,69.9,61.2z"/>
	<path class="st1" d="M73.7,61.2c0.5,0,1-0.4,1-1c0-0.5-0.4-1-1-1c-0.5,0-1,0.4-1,1C72.8,60.7,73.2,61.2,73.7,61.2z"/>
	<path class="st1" d="M70.9,66.9c-0.3,0-0.5,0.1-0.7,0.3c-0.2,0.2-0.3,0.4-0.3,0.7v3.8c0,0.3,0.1,0.5,0.3,0.7
		c0.2,0.2,0.4,0.3,0.7,0.3h5.7c0.3,0,0.5-0.1,0.7-0.3c0.2-0.2,0.3-0.4,0.3-0.7v-3.8c0-0.3-0.1-0.5-0.3-0.7c-0.2-0.2-0.4-0.3-0.7-0.3
		H70.9z M75.6,70.7h-3.8v-1.9h3.8V70.7z"/>
	<path class="st1" d="M61.4,66.9c-0.3,0-0.5,0.1-0.7,0.3c-0.2,0.2-0.3,0.4-0.3,0.7v3.8c0,0.3,0.1,0.5,0.3,0.7
		c0.2,0.2,0.4,0.3,0.7,0.3h5.7c0.3,0,0.5-0.1,0.7-0.3c0.2-0.2,0.3-0.4,0.3-0.7v-3.8c0-0.3-0.1-0.5-0.3-0.7c-0.2-0.2-0.4-0.3-0.7-0.3
		H61.4z M66.1,70.7h-3.8v-1.9h3.8V70.7z"/>
	<path class="st1" d="M84.2,27.9H49c-0.8,0-1.5,0.3-2,0.8c-0.5,0.5-0.8,1.3-0.8,2v9.5c0,0.8,0.3,1.5,0.8,2s1.3,0.8,2,0.8h9.1
		l1.6,1.9H39.5c-1.3,0-2.5,0.5-3.4,1.4c-0.9,0.9-1.4,2.1-1.4,3.4v22.8c0,0.3,0.1,0.5,0.3,0.7c0.2,0.2,0.4,0.3,0.7,0.3
		s0.5-0.1,0.7-0.3c0.2-0.2,0.3-0.4,0.3-0.7V49.8c0-0.8,0.3-1.5,0.8-2c0.5-0.5,1.3-0.8,2-0.8h21.7l5.2,6.3c0.1,0.1,0.2,0.2,0.3,0.3
		c0.1,0.1,0.3,0.1,0.4,0.1c0.1,0,0.2,0,0.3-0.1c0.2-0.1,0.3-0.2,0.5-0.3C68,53,68,52.8,68,52.6v-9.5h16.2c0.8,0,1.5-0.3,2-0.8
		c0.5-0.5,0.8-1.3,0.8-2v-9.5c0-0.8-0.3-1.5-0.8-2C85.7,28.2,84.9,27.9,84.2,27.9L84.2,27.9z M85.1,40.3c0,0.3-0.1,0.5-0.3,0.7
		c-0.2,0.2-0.4,0.3-0.7,0.3H67.1c-0.3,0-0.5,0.1-0.7,0.3c-0.2,0.2-0.3,0.4-0.3,0.7V50l-6.9-8.4c-0.1-0.1-0.2-0.2-0.3-0.3
		c-0.1-0.1-0.3-0.1-0.4-0.1H49c-0.3,0-0.5-0.1-0.7-0.3s-0.3-0.4-0.3-0.7v-9.5c0-0.3,0.1-0.5,0.3-0.7c0.2-0.2,0.4-0.3,0.7-0.3h35.2
		c0.3,0,0.5,0.1,0.7,0.3c0.2,0.2,0.3,0.4,0.3,0.7V40.3z"/>
	<path class="st1" d="M57.1,33.6c-0.1-0.2-0.3-0.4-0.6-0.4c-0.2-0.1-0.5,0-0.7,0.1l-1,0.6v-1.2c0-0.3-0.1-0.5-0.3-0.7
		c-0.2-0.2-0.4-0.3-0.7-0.3s-0.5,0.1-0.7,0.3c-0.2,0.2-0.3,0.4-0.3,0.7v1.2l-1-0.6c-0.2-0.1-0.5-0.2-0.7-0.1
		c-0.2,0.1-0.4,0.2-0.6,0.4c-0.1,0.2-0.2,0.5-0.1,0.7c0.1,0.2,0.2,0.5,0.4,0.6l1,0.6l-1,0.6c-0.1,0.1-0.2,0.1-0.3,0.2
		c-0.1,0.1-0.1,0.2-0.2,0.3c0,0.1,0,0.2,0,0.4c0,0.1,0.1,0.2,0.1,0.4c0.1,0.1,0.1,0.2,0.2,0.3c0.1,0.1,0.2,0.1,0.3,0.2s0.2,0,0.4,0
		c0.1,0,0.2-0.1,0.4-0.1l1-0.6v1.2c0,0.3,0.1,0.5,0.3,0.7c0.2,0.2,0.4,0.3,0.7,0.3s0.5-0.1,0.7-0.3c0.2-0.2,0.3-0.4,0.3-0.7v-1.2
		l1,0.6c0.1,0.1,0.2,0.1,0.4,0.1c0.1,0,0.3,0,0.4,0s0.2-0.1,0.3-0.2c0.1-0.1,0.2-0.2,0.2-0.3c0.1-0.1,0.1-0.2,0.1-0.4
		c0-0.1,0-0.3,0-0.4c0-0.1-0.1-0.2-0.2-0.3c-0.1-0.1-0.2-0.2-0.3-0.2l-1-0.6l1-0.6c0.2-0.1,0.4-0.3,0.4-0.6
		C57.2,34.1,57.2,33.8,57.1,33.6z"/>
	<path class="st1" d="M65.6,33.6c-0.1-0.2-0.3-0.4-0.6-0.4c-0.2-0.1-0.5,0-0.7,0.1l-1,0.6v-1.2c0-0.3-0.1-0.5-0.3-0.7
		c-0.2-0.2-0.4-0.3-0.7-0.3c-0.3,0-0.5,0.1-0.7,0.3c-0.2,0.2-0.3,0.4-0.3,0.7v1.2l-1-0.6c-0.2-0.1-0.5-0.2-0.7-0.1
		c-0.2,0.1-0.4,0.2-0.6,0.4c-0.1,0.2-0.2,0.5-0.1,0.7c0.1,0.2,0.2,0.5,0.4,0.6l1,0.6l-1,0.6c-0.1,0.1-0.2,0.1-0.3,0.2
		c-0.1,0.1-0.1,0.2-0.2,0.3c0,0.1,0,0.2,0,0.4c0,0.1,0.1,0.2,0.1,0.4c0.1,0.1,0.1,0.2,0.2,0.3c0.1,0.1,0.2,0.1,0.3,0.2
		c0.1,0,0.2,0,0.4,0c0.1,0,0.2-0.1,0.4-0.1l1-0.6v1.2c0,0.3,0.1,0.5,0.3,0.7c0.2,0.2,0.4,0.3,0.7,0.3c0.3,0,0.5-0.1,0.7-0.3
		c0.2-0.2,0.3-0.4,0.3-0.7v-1.2l1,0.6c0.2,0.1,0.5,0.2,0.7,0.1c0.2-0.1,0.4-0.2,0.6-0.4c0.1-0.2,0.2-0.5,0.1-0.7
		c-0.1-0.2-0.2-0.5-0.4-0.6l-1-0.6l1-0.6c0.2-0.1,0.4-0.3,0.4-0.6C65.8,34.1,65.7,33.8,65.6,33.6L65.6,33.6z"/>
	<path class="st1" d="M74.2,33.6c-0.1-0.2-0.3-0.4-0.6-0.4c-0.2-0.1-0.5,0-0.7,0.1l-1,0.6v-1.2c0-0.3-0.1-0.5-0.3-0.7
		c-0.2-0.2-0.4-0.3-0.7-0.3c-0.3,0-0.5,0.1-0.7,0.3c-0.2,0.2-0.3,0.4-0.3,0.7v1.2l-1-0.6c-0.1-0.1-0.2-0.1-0.4-0.1
		c-0.1,0-0.3,0-0.4,0s-0.2,0.1-0.3,0.2c-0.1,0.1-0.2,0.2-0.2,0.3c-0.1,0.1-0.1,0.2-0.1,0.4c0,0.1,0,0.3,0,0.4c0,0.1,0.1,0.2,0.2,0.3
		c0.1,0.1,0.2,0.2,0.3,0.2l1,0.6l-1,0.6c-0.1,0.1-0.2,0.1-0.3,0.2c-0.1,0.1-0.1,0.2-0.2,0.3c0,0.1,0,0.2,0,0.4
		c0,0.1,0.1,0.2,0.1,0.4c0.1,0.1,0.1,0.2,0.2,0.3c0.1,0.1,0.2,0.1,0.3,0.2s0.2,0,0.4,0c0.1,0,0.2-0.1,0.4-0.1l1-0.6v1.2
		c0,0.3,0.1,0.5,0.3,0.7c0.2,0.2,0.4,0.3,0.7,0.3c0.3,0,0.5-0.1,0.7-0.3c0.2-0.2,0.3-0.4,0.3-0.7v-1.2l1,0.6
		c0.2,0.1,0.5,0.2,0.7,0.1c0.2-0.1,0.4-0.2,0.6-0.4c0.1-0.2,0.2-0.5,0.1-0.7c-0.1-0.2-0.2-0.5-0.4-0.6l-1-0.6l1-0.6
		c0.2-0.1,0.4-0.3,0.4-0.6C74.3,34.1,74.3,33.8,74.2,33.6L74.2,33.6z"/>
	<path class="st1" d="M82.7,33.6c-0.1-0.2-0.3-0.4-0.6-0.4c-0.2-0.1-0.5,0-0.7,0.1l-1,0.6v-1.2c0-0.3-0.1-0.5-0.3-0.7
		c-0.2-0.2-0.4-0.3-0.7-0.3s-0.5,0.1-0.7,0.3c-0.2,0.2-0.3,0.4-0.3,0.7v1.2l-1-0.6c-0.1-0.1-0.2-0.1-0.4-0.1c-0.1,0-0.3,0-0.4,0
		s-0.2,0.1-0.3,0.2c-0.1,0.1-0.2,0.2-0.2,0.3c-0.1,0.1-0.1,0.2-0.1,0.4c0,0.1,0,0.3,0,0.4c0,0.1,0.1,0.2,0.2,0.3
		c0.1,0.1,0.2,0.2,0.3,0.2l1,0.6l-1,0.6c-0.1,0.1-0.2,0.1-0.3,0.2c-0.1,0.1-0.1,0.2-0.2,0.3c0,0.1,0,0.2,0,0.4
		c0,0.1,0.1,0.2,0.1,0.4c0.1,0.1,0.1,0.2,0.2,0.3c0.1,0.1,0.2,0.1,0.3,0.2s0.2,0,0.4,0c0.1,0,0.2-0.1,0.4-0.1l1-0.6v1.2
		c0,0.3,0.1,0.5,0.3,0.7c0.2,0.2,0.4,0.3,0.7,0.3s0.5-0.1,0.7-0.3c0.2-0.2,0.3-0.4,0.3-0.7v-1.2l1,0.6c0.2,0.1,0.5,0.2,0.7,0.1
		c0.2-0.1,0.4-0.2,0.6-0.4c0.1-0.2,0.2-0.5,0.1-0.7c-0.1-0.2-0.2-0.5-0.4-0.6l-1-0.6l1-0.6c0.2-0.1,0.4-0.3,0.4-0.6
		C82.9,34.1,82.9,33.8,82.7,33.6L82.7,33.6z"/>
	<path class="st1" d="M58.5,53.6h-0.3c-0.9,0-1.9-0.1-2.8-0.3c-0.2-0.1-0.5,0-0.7,0.1s-0.4,0.3-0.4,0.6s0,0.5,0.1,0.7
		c0.1,0.2,0.3,0.4,0.6,0.4c0.9,0.2,1.7,0.3,2.6,0.4v2.2c0,1.9-0.4,3.7-1.2,5.4c-0.8,1.7-2,3.1-3.4,4.3L49,70.4l-3.9-3.1
		c-1.4-1.1-2.5-2.5-3.3-4c-0.8-1.6-1.3-3.3-1.3-5c0-0.3-0.1-0.5-0.3-0.7c-0.2-0.2-0.4-0.3-0.7-0.3c-0.1,0-0.2,0-0.4,0.1
		c-0.1,0.1-0.2,0.1-0.3,0.2c-0.1,0.1-0.1,0.2-0.2,0.3c0,0.1-0.1,0.2-0.1,0.4c0.1,2,0.6,4,1.5,5.8c0.9,1.8,2.2,3.4,3.8,4.6l4.5,3.6
		c0.2,0.1,0.4,0.2,0.6,0.2c0.2,0,0.4-0.1,0.6-0.2l4.5-3.6c1.7-1.3,3-3,4-5c0.9-1.9,1.4-4,1.4-6.2v-0.3h17.1v5.7H60.7
		c-0.3,0-0.5,0.1-0.7,0.3c-0.2,0.2-0.3,0.4-0.3,0.7c0,0.3,0.1,0.5,0.3,0.7c0.2,0.2,0.4,0.3,0.7,0.3h16.9c0.3,0,0.5-0.1,0.7-0.3
		c0.2-0.2,0.3-0.4,0.3-0.7v-7.6c0-0.3-0.1-0.5-0.3-0.7c-0.2-0.2-0.4-0.3-0.7-0.3H59.5v-1c0-0.3-0.1-0.5-0.3-0.7
		C59,53.7,58.8,53.6,58.5,53.6z"/>
	<path class="st1" d="M52.1,51.9c-0.9-0.5-1.7-1.1-2.4-1.9c-0.2-0.2-0.4-0.3-0.7-0.3c-0.3,0-0.5,0.1-0.7,0.3c-1.1,1.1-2.4,2-3.9,2.6
		c-1.5,0.6-3,0.9-4.6,0.9h-0.3c-0.3,0-0.5,0.1-0.7,0.3c-0.2,0.2-0.3,0.4-0.3,0.7c0,0.3,0.1,0.5,0.3,0.7c0.2,0.2,0.4,0.3,0.7,0.3h0.3
		c3.4,0,6.6-1.2,9.2-3.5c0.7,0.6,1.4,1.1,2.1,1.5c0.1,0.1,0.2,0.1,0.4,0.1c0.1,0,0.3,0,0.4,0c0.1,0,0.2-0.1,0.3-0.2s0.2-0.2,0.3-0.3
		c0.1-0.1,0.1-0.2,0.1-0.4c0-0.1,0-0.3,0-0.4c0-0.1-0.1-0.2-0.2-0.3C52.3,52,52.2,52,52.1,51.9L52.1,51.9z"/>
	<path class="st1" d="M53.1,57.6L49,61.7l-2.2-2.2c-0.2-0.2-0.4-0.3-0.7-0.3c-0.2,0-0.5,0.1-0.7,0.3c-0.2,0.2-0.3,0.4-0.3,0.7
		c0,0.2,0.1,0.5,0.3,0.7l2.9,2.9c0.2,0.2,0.4,0.3,0.7,0.3c0.3,0,0.5-0.1,0.7-0.3l4.8-4.8c0.2-0.2,0.3-0.4,0.3-0.7s-0.1-0.5-0.3-0.7
		c-0.2-0.2-0.4-0.3-0.7-0.3C53.5,57.4,53.3,57.5,53.1,57.6L53.1,57.6z"/>
</g>
</svg>
