<?xml version="1.0" encoding="utf-8"?>
<!-- Generator: Adobe Illustrator 26.3.1, SVG Export Plug-In . SVG Version: 6.00 Build 0)  -->
<svg version="1.1" id="Layer_1" xmlns="http://www.w3.org/2000/svg" xmlns:xlink="http://www.w3.org/1999/xlink" x="0px" y="0px"
	 viewBox="0 0 120 120" style="enable-background:new 0 0 120 120;" xml:space="preserve">
<style type="text/css">
	.st0{fill:#FFF2F3;}
	.st1{fill:#C12F33;}
</style>
<path class="st0" d="M60.5,0L60.5,0c33.1,0,60,26.9,60,60v0c0,33.1-26.9,60-60,60l0,0c-33.1,0-60-26.9-60-60v0
	C0.5,26.9,27.4,0,60.5,0z"/>
<path class="st1" d="M61,85.5c-4.5,0-9-1.1-13-3.1c-4-2-7.5-5-10.2-8.7c-2.7-3.7-4.4-7.9-5.2-12.4c-0.7-4.5-0.4-9.1,1-13.4
	c1.4-4.3,3.8-8.2,6.9-11.5c3.2-3.2,7.1-5.7,11.4-7.1c4.3-1.4,8.9-1.8,13.4-1.2c4.5,0.7,8.7,2.4,12.4,5l3-3c0.1-0.1,0.3-0.2,0.5-0.3
	c0.2,0,0.4,0,0.5,0c0.2,0.1,0.3,0.2,0.4,0.3c0.1,0.1,0.2,0.3,0.2,0.5l1.4,10.8c0,0.1,0,0.3,0,0.4c0,0.1-0.1,0.3-0.2,0.4
	c-0.1,0.1-0.2,0.2-0.4,0.2c-0.1,0-0.3,0.1-0.4,0l-10.9-1.3c-0.2,0-0.3-0.1-0.5-0.2c-0.1-0.1-0.2-0.3-0.3-0.4c-0.1-0.2-0.1-0.4,0-0.5
	c0-0.2,0.1-0.3,0.3-0.5l2.4-2.4c-3.6-2.4-7.9-3.7-12.2-3.7c-4.3-0.1-8.6,1.1-12.3,3.4c-3.7,2.3-6.7,5.5-8.6,9.5
	c-1.9,3.9-2.7,8.3-2.2,12.6c0.5,4.3,2.1,8.4,4.8,11.8c2.7,3.4,6.3,6,10.4,7.4c4.1,1.5,8.5,1.7,12.8,0.7c4.2-1,8.1-3.1,11.2-6.2
	c3.4-3.4,5.7-7.8,6.4-12.6c0-0.2,0.1-0.4,0.3-0.6c0.2-0.1,0.4-0.2,0.6-0.2h3.9c0.1,0,0.3,0,0.4,0.1c0.1,0.1,0.2,0.1,0.3,0.2
	c0.1,0.1,0.2,0.2,0.2,0.4c0,0.1,0,0.3,0,0.4c-1,6.9-4.4,13.2-9.6,17.7C74.7,83,68,85.5,61,85.5L61,85.5z M61.1,29.9
	c-5.1,0-10.1,1.4-14.4,4.2c-4.3,2.7-7.7,6.6-9.9,11.3c-2.2,4.6-3,9.8-2.3,14.8c0.7,5.1,2.7,9.8,6,13.8c3.3,3.9,7.6,6.8,12.5,8.4
	c4.9,1.6,10.1,1.7,15,0.4s9.4-4,12.9-7.7c3.5-3.7,5.8-8.4,6.7-13.4h-2c-0.9,4.9-3.3,9.3-6.8,12.8c-3.4,3.4-7.6,5.7-12.3,6.7
	c-4.7,1-9.5,0.7-14-0.9c-4.5-1.6-8.4-4.5-11.3-8.3c-2.9-3.8-4.6-8.3-5-13.1C35.8,54,36.8,49.2,39,45c2.2-4.2,5.6-7.7,9.8-10
	c4.1-2.3,8.9-3.4,13.6-3.2c4.8,0.3,9.3,1.9,13.2,4.7c0.1,0.1,0.2,0.2,0.3,0.3c0.1,0.1,0.1,0.3,0.1,0.4c0,0.1,0,0.3-0.1,0.4
	c0,0.1-0.1,0.2-0.2,0.3L74,39.7l7.7,0.9l-1-7.6l-2.2,2.2c-0.2,0.2-0.4,0.3-0.6,0.3c-0.2,0-0.5-0.1-0.6-0.2
	C72.6,31.8,66.9,29.9,61.1,29.9L61.1,29.9z"/>
<path class="st1" d="M62,53V42.3c0-0.3-0.1-0.5-0.3-0.7s-0.4-0.3-0.7-0.3s-0.5,0.1-0.7,0.3c-0.2,0.2-0.3,0.4-0.3,0.7V53
	c-0.7,0.2-1.3,0.5-1.7,1c-0.5,0.5-0.8,1.1-1,1.7h-6.9c-0.3,0-0.5,0.1-0.7,0.3s-0.3,0.4-0.3,0.7s0.1,0.5,0.3,0.7s0.4,0.3,0.7,0.3h6.9
	c0.2,0.7,0.5,1.3,1,1.7c0.5,0.5,1.1,0.8,1.7,1c0.7,0.2,1.3,0.2,2,0c0.7-0.2,1.2-0.5,1.7-1c0.5-0.5,0.8-1.1,1-1.7
	c0.2-0.7,0.2-1.3,0-2c-0.2-0.7-0.5-1.2-1-1.7C63.2,53.5,62.6,53.2,62,53L62,53z M61,58.6c-0.4,0-0.8-0.1-1.1-0.3
	c-0.3-0.2-0.6-0.5-0.7-0.9c-0.1-0.4-0.2-0.7-0.1-1.1c0.1-0.4,0.3-0.7,0.5-1c0.3-0.3,0.6-0.5,1-0.5c0.4-0.1,0.8,0,1.1,0.1
	c0.4,0.1,0.7,0.4,0.9,0.7c0.2,0.3,0.3,0.7,0.3,1.1c0,0.5-0.2,1-0.6,1.4S61.5,58.6,61,58.6z"/>
<path class="st1" d="M61,39.5c-0.3,0-0.5-0.1-0.7-0.3c-0.2-0.2-0.3-0.4-0.3-0.7v-1.9c0-0.3,0.1-0.5,0.3-0.7c0.2-0.2,0.4-0.3,0.7-0.3
	s0.5,0.1,0.7,0.3s0.3,0.4,0.3,0.7v1.9c0,0.3-0.1,0.5-0.3,0.7S61.3,39.5,61,39.5z"/>
<path class="st1" d="M51.9,41.9c-0.2,0-0.3,0-0.5-0.1c-0.1-0.1-0.3-0.2-0.4-0.4l-1-1.7c-0.1-0.1-0.1-0.2-0.1-0.4c0-0.1,0-0.3,0-0.4
	c0-0.1,0.1-0.2,0.2-0.3c0.1-0.1,0.2-0.2,0.3-0.2c0.1-0.1,0.2-0.1,0.4-0.1s0.3,0,0.4,0c0.1,0,0.2,0.1,0.3,0.2
	c0.1,0.1,0.2,0.2,0.2,0.3l1,1.7c0.1,0.1,0.1,0.3,0.1,0.5c0,0.2,0,0.3-0.1,0.5c-0.1,0.1-0.2,0.3-0.4,0.4
	C52.3,41.9,52.1,41.9,51.9,41.9z"/>
<path class="st1" d="M45.2,48.6c-0.2,0-0.3,0-0.5-0.1l-1.7-1c-0.1-0.1-0.2-0.1-0.3-0.2c-0.1-0.1-0.1-0.2-0.2-0.3c0-0.1,0-0.2,0-0.4
	c0-0.1,0.1-0.2,0.1-0.4c0.1-0.1,0.1-0.2,0.2-0.3c0.1-0.1,0.2-0.1,0.3-0.2c0.1,0,0.2,0,0.4,0c0.1,0,0.2,0.1,0.4,0.1l1.7,1
	c0.2,0.1,0.3,0.3,0.4,0.5c0.1,0.2,0.1,0.4,0,0.6c-0.1,0.2-0.2,0.4-0.3,0.5C45.7,48.5,45.5,48.6,45.2,48.6L45.2,48.6z"/>
<path class="st1" d="M42.8,57.7h-1.9c-0.3,0-0.5-0.1-0.7-0.3s-0.3-0.4-0.3-0.7s0.1-0.5,0.3-0.7s0.4-0.3,0.7-0.3h1.9
	c0.3,0,0.5,0.1,0.7,0.3s0.3,0.4,0.3,0.7s-0.1,0.5-0.3,0.7S43.1,57.7,42.8,57.7z"/>
<path class="st1" d="M43.6,67.8c-0.2,0-0.4-0.1-0.6-0.2c-0.2-0.1-0.3-0.3-0.3-0.5c-0.1-0.2,0-0.4,0-0.6c0.1-0.2,0.2-0.4,0.4-0.5
	l1.7-1c0.1-0.1,0.2-0.1,0.4-0.1c0.1,0,0.3,0,0.4,0c0.1,0,0.2,0.1,0.3,0.2c0.1,0.1,0.2,0.2,0.2,0.3c0.1,0.1,0.1,0.2,0.1,0.4
	s0,0.3,0,0.4c0,0.1-0.1,0.2-0.2,0.3c-0.1,0.1-0.2,0.2-0.3,0.2l-1.7,1C43.9,67.7,43.8,67.8,43.6,67.8z"/>
<path class="st1" d="M51,75.1c-0.2,0-0.3,0-0.5-0.1c-0.1-0.1-0.3-0.2-0.4-0.4C50,74.5,50,74.3,50,74.2c0-0.2,0-0.3,0.1-0.5l1-1.7
	c0.1-0.1,0.1-0.2,0.2-0.3c0.1-0.1,0.2-0.1,0.3-0.2c0.1,0,0.2,0,0.4,0c0.1,0,0.2,0.1,0.4,0.1c0.1,0.1,0.2,0.1,0.3,0.2
	c0.1,0.1,0.1,0.2,0.2,0.3c0,0.1,0,0.2,0,0.4c0,0.1-0.1,0.2-0.1,0.4l-1,1.7c-0.1,0.1-0.2,0.3-0.4,0.4C51.3,75.1,51.1,75.1,51,75.1z"
	/>
<path class="st1" d="M61,77.8c-0.3,0-0.5-0.1-0.7-0.3c-0.2-0.2-0.3-0.4-0.3-0.7V75c0-0.3,0.1-0.5,0.3-0.7c0.2-0.2,0.4-0.3,0.7-0.3
	s0.5,0.1,0.7,0.3S62,74.7,62,75v1.9c0,0.3-0.1,0.5-0.3,0.7S61.3,77.8,61,77.8z"/>
<path class="st1" d="M71.1,75.1c-0.2,0-0.3,0-0.5-0.1c-0.1-0.1-0.3-0.2-0.4-0.4l-1-1.7c-0.1-0.1-0.1-0.2-0.1-0.4c0-0.1,0-0.3,0-0.4
	s0.1-0.2,0.2-0.3c0.1-0.1,0.2-0.2,0.3-0.2c0.1-0.1,0.2-0.1,0.4-0.1c0.1,0,0.3,0,0.4,0c0.1,0,0.2,0.1,0.3,0.2
	c0.1,0.1,0.2,0.2,0.2,0.3l1,1.7c0.1,0.1,0.1,0.3,0.1,0.5c0,0.2,0,0.3-0.1,0.5c-0.1,0.1-0.2,0.3-0.4,0.4
	C71.4,75.1,71.3,75.1,71.1,75.1z"/>
<path class="st1" d="M78.5,67.8c-0.2,0-0.3,0-0.5-0.1l-1.7-1c-0.1-0.1-0.2-0.1-0.3-0.2c-0.1-0.1-0.1-0.2-0.2-0.3c0-0.1,0-0.2,0-0.4
	c0-0.1,0.1-0.2,0.1-0.4c0.1-0.1,0.1-0.2,0.2-0.3c0.1-0.1,0.2-0.1,0.3-0.2c0.1,0,0.2,0,0.4,0c0.1,0,0.2,0.1,0.4,0.1l1.7,1
	c0.2,0.1,0.3,0.3,0.4,0.5c0.1,0.2,0.1,0.4,0,0.6c-0.1,0.2-0.2,0.4-0.3,0.5C78.9,67.7,78.7,67.8,78.5,67.8L78.5,67.8z"/>
<path class="st1" d="M80.2,56.7h-3.8c-0.3,0-0.5-0.1-0.7-0.3c-0.2-0.2-0.3-0.4-0.3-0.7v-1.1c0-0.4,0.1-0.8,0.2-1.1
	c0.1-0.3,0.4-0.7,0.6-0.9l2.2-2.2c0.5-0.5,0.8-1.3,0.8-2v-0.3c0-0.3-0.1-0.5-0.3-0.7c-0.2-0.2-0.4-0.3-0.7-0.3
	c-0.3,0-0.5,0.1-0.7,0.3c-0.2,0.2-0.3,0.4-0.3,0.7v1c0,0.3-0.1,0.5-0.3,0.7c-0.2,0.2-0.4,0.3-0.7,0.3c-0.3,0-0.5-0.1-0.7-0.3
	c-0.2-0.2-0.3-0.4-0.3-0.7v-1c0-0.8,0.3-1.5,0.8-2c0.5-0.5,1.3-0.8,2-0.8c0.8,0,1.5,0.3,2,0.8c0.5,0.5,0.8,1.3,0.8,2v0.3
	c0,0.6-0.1,1.3-0.4,1.8c-0.2,0.6-0.6,1.1-1,1.6L77.6,54c-0.1,0.1-0.2,0.2-0.2,0.3c0,0.1-0.1,0.2-0.1,0.4v0.2h2.9
	c0.3,0,0.5,0.1,0.7,0.3c0.2,0.2,0.3,0.4,0.3,0.7s-0.1,0.5-0.3,0.7C80.7,56.6,80.5,56.7,80.2,56.7z"/>
<path class="st1" d="M88.9,52.9h-1v-6.7c0-0.3-0.1-0.5-0.3-0.7c-0.2-0.2-0.4-0.3-0.7-0.3c-0.3,0-0.5,0.1-0.7,0.3
	c-0.2,0.2-0.3,0.4-0.3,0.7v6.7h-1.8l0.8-6.6c0-0.2,0-0.5-0.2-0.7c-0.2-0.2-0.4-0.3-0.6-0.4s-0.5,0-0.7,0.2c-0.2,0.2-0.3,0.4-0.4,0.6
	l-1,7.7c0,0.1,0,0.3,0,0.4c0,0.1,0.1,0.2,0.2,0.4c0.1,0.1,0.2,0.2,0.3,0.2c0.1,0.1,0.3,0.1,0.4,0.1H86v1c0,0.3,0.1,0.5,0.3,0.7
	c0.2,0.2,0.4,0.3,0.7,0.3c0.3,0,0.5-0.1,0.7-0.3c0.2-0.2,0.3-0.4,0.3-0.7v-1h1c0.3,0,0.5-0.1,0.7-0.3c0.2-0.2,0.3-0.4,0.3-0.7
	s-0.1-0.5-0.3-0.7C89.3,53,89.1,52.9,88.9,52.9z"/>
</svg>
