<?xml version="1.0" encoding="utf-8"?>
<!-- Generator: Adobe Illustrator 26.3.1, SVG Export Plug-In . SVG Version: 6.00 Build 0)  -->
<svg version="1.1" id="Layer_1" xmlns="http://www.w3.org/2000/svg" xmlns:xlink="http://www.w3.org/1999/xlink" x="0px" y="0px"
	 viewBox="0 0 120 120" style="enable-background:new 0 0 120 120;" xml:space="preserve">
<style type="text/css">
	.st0{fill:#FFF2F3;}
	.st1{fill:#C12F33;}
</style>
<path class="st0" d="M60.5,0L60.5,0c33.1,0,60,26.9,60,60v0c0,33.1-26.9,60-60,60l0,0c-33.1,0-60-26.9-60-60v0
	C0.5,26.9,27.4,0,60.5,0z"/>
<path class="st1" d="M89.3,45.1h-2.9v-2.9c0-0.3-0.1-0.5-0.3-0.7c-0.2-0.2-0.4-0.3-0.7-0.3h-9.7c-0.2-3.7-1.9-7.1-4.6-9.6
	c-2.7-2.5-6.2-3.9-9.9-3.9c-3.7,0-7.2,1.4-9.9,3.9c-2.7,2.5-4.3,6-4.6,9.6h-9.7c-0.3,0-0.5,0.1-0.7,0.3c-0.2,0.2-0.3,0.4-0.3,0.7
	v2.9h-2.9c-0.3,0-0.5,0.1-0.7,0.3c-0.2,0.2-0.3,0.4-0.3,0.7v38.7c0,0.3,0.1,0.5,0.3,0.7c0.2,0.2,0.4,0.3,0.7,0.3h56.1
	c0.3,0,0.5-0.1,0.7-0.3c0.2-0.2,0.3-0.4,0.3-0.7V46.1c0-0.3-0.1-0.5-0.3-0.7C89.8,45.2,89.5,45.1,89.3,45.1z M61.3,29.6
	c3,0,5.9,1.1,8.2,3c2.3,1.9,3.8,4.6,4.3,7.6c0.5,3-0.1,6-1.7,8.5c-1.6,2.6-4,4.5-6.8,5.4c-0.2,0.1-0.4,0.2-0.5,0.4l-3.4,6l-3.4-6
	c-0.1-0.2-0.3-0.4-0.5-0.4c-2.8-0.9-5.3-2.8-6.8-5.4c-1.6-2.6-2.2-5.6-1.7-8.5c0.5-3,2-5.6,4.3-7.6C55.4,30.7,58.3,29.6,61.3,29.6
	L61.3,29.6z M38.1,43.2h8.7c0.2,2.8,1.2,5.5,2.9,7.8c1.7,2.3,4,4,6.7,4.9l4,7.2c0.1,0.1,0.2,0.3,0.4,0.4c0.1,0.1,0.3,0.1,0.5,0.1
	c0.2,0,0.3,0,0.5-0.1c0.1-0.1,0.3-0.2,0.4-0.4l4-7.2c2.7-0.9,5-2.6,6.7-4.9c1.7-2.3,2.7-5,2.9-7.8h8.7v36.7H62.2V66.4
	c0-0.3-0.1-0.5-0.3-0.7c-0.2-0.2-0.4-0.3-0.7-0.3c-0.3,0-0.5,0.1-0.7,0.3c-0.2,0.2-0.3,0.4-0.3,0.7v13.5H38.1V43.2z M88.3,83.8H34.2
	V47h1.9v33.8c0,0.3,0.1,0.5,0.3,0.7c0.2,0.2,0.4,0.3,0.7,0.3h48.3c0.3,0,0.5-0.1,0.7-0.3s0.3-0.4,0.3-0.7V47h1.9V83.8z"/>
<path class="st1" d="M41,62.5h16.4c0.3,0,0.5-0.1,0.7-0.3c0.2-0.2,0.3-0.4,0.3-0.7s-0.1-0.5-0.3-0.7c-0.2-0.2-0.4-0.3-0.7-0.3H41.9
	v-9.7h3.9c0.3,0,0.5-0.1,0.7-0.3c0.2-0.2,0.3-0.4,0.3-0.7c0-0.3-0.1-0.5-0.3-0.7C46.3,49.1,46,49,45.8,49H41c-0.3,0-0.5,0.1-0.7,0.3
	c-0.2,0.2-0.3,0.4-0.3,0.7v11.6c0,0.3,0.1,0.5,0.3,0.7C40.5,62.4,40.7,62.5,41,62.5z"/>
<path class="st1" d="M41,68.3h1c0.3,0,0.5-0.1,0.7-0.3c0.2-0.2,0.3-0.4,0.3-0.7s-0.1-0.5-0.3-0.7c-0.2-0.2-0.4-0.3-0.7-0.3h-1
	c-0.3,0-0.5,0.1-0.7,0.3c-0.2,0.2-0.3,0.4-0.3,0.7s0.1,0.5,0.3,0.7S40.7,68.3,41,68.3L41,68.3z"/>
<path class="st1" d="M57.4,66.4H45.8c-0.3,0-0.5,0.1-0.7,0.3c-0.2,0.2-0.3,0.4-0.3,0.7s0.1,0.5,0.3,0.7c0.2,0.2,0.4,0.3,0.7,0.3
	h11.6c0.3,0,0.5-0.1,0.7-0.3c0.2-0.2,0.3-0.4,0.3-0.7s-0.1-0.5-0.3-0.7C57.9,66.5,57.6,66.4,57.4,66.4z"/>
<path class="st1" d="M41,72.2h1c0.3,0,0.5-0.1,0.7-0.3c0.2-0.2,0.3-0.4,0.3-0.7s-0.1-0.5-0.3-0.7c-0.2-0.2-0.4-0.3-0.7-0.3h-1
	c-0.3,0-0.5,0.1-0.7,0.3S40,70.9,40,71.2s0.1,0.5,0.3,0.7C40.5,72.1,40.7,72.2,41,72.2L41,72.2z"/>
<path class="st1" d="M57.4,70.2H45.8c-0.3,0-0.5,0.1-0.7,0.3c-0.2,0.2-0.3,0.4-0.3,0.7s0.1,0.5,0.3,0.7c0.2,0.2,0.4,0.3,0.7,0.3
	h11.6c0.3,0,0.5-0.1,0.7-0.3c0.2-0.2,0.3-0.4,0.3-0.7s-0.1-0.5-0.3-0.7C57.9,70.3,57.6,70.2,57.4,70.2z"/>
<path class="st1" d="M41,76h1c0.3,0,0.5-0.1,0.7-0.3c0.2-0.2,0.3-0.4,0.3-0.7c0-0.3-0.1-0.5-0.3-0.7c-0.2-0.2-0.4-0.3-0.7-0.3h-1
	c-0.3,0-0.5,0.1-0.7,0.3S40,74.8,40,75.1c0,0.3,0.1,0.5,0.3,0.7S40.7,76,41,76L41,76z"/>
<path class="st1" d="M57.4,74.1H45.8c-0.3,0-0.5,0.1-0.7,0.3c-0.2,0.2-0.3,0.4-0.3,0.7c0,0.3,0.1,0.5,0.3,0.7
	c0.2,0.2,0.4,0.3,0.7,0.3h11.6c0.3,0,0.5-0.1,0.7-0.3c0.2-0.2,0.3-0.4,0.3-0.7c0-0.3-0.1-0.5-0.3-0.7C57.9,74.2,57.6,74.1,57.4,74.1
	z"/>
<path class="st1" d="M65.1,76h16.4c0.3,0,0.5-0.1,0.7-0.3c0.2-0.2,0.3-0.4,0.3-0.7v-7.7c0-0.3-0.1-0.5-0.3-0.7
	c-0.2-0.2-0.4-0.3-0.7-0.3H65.1c-0.3,0-0.5,0.1-0.7,0.3c-0.2,0.2-0.3,0.4-0.3,0.7v7.7c0,0.3,0.1,0.5,0.3,0.7S64.9,76,65.1,76z
	 M66.1,68.3h14.5v5.8H66.1V68.3z"/>
<path class="st1" d="M67.1,62.5h14.5c0.3,0,0.5-0.1,0.7-0.3c0.2-0.2,0.3-0.4,0.3-0.7s-0.1-0.5-0.3-0.7c-0.2-0.2-0.4-0.3-0.7-0.3
	H67.1c-0.3,0-0.5,0.1-0.7,0.3c-0.2,0.2-0.3,0.4-0.3,0.7s0.1,0.5,0.3,0.7C66.6,62.4,66.8,62.5,67.1,62.5z"/>
<path class="st1" d="M69,58.6h12.6c0.3,0,0.5-0.1,0.7-0.3c0.2-0.2,0.3-0.4,0.3-0.7c0-0.3-0.1-0.5-0.3-0.7c-0.2-0.2-0.4-0.3-0.7-0.3
	H69c-0.3,0-0.5,0.1-0.7,0.3c-0.2,0.2-0.3,0.4-0.3,0.7c0,0.3,0.1,0.5,0.3,0.7C68.5,58.5,68.7,58.6,69,58.6z"/>
<path class="st1" d="M73.8,54.8h7.7c0.3,0,0.5-0.1,0.7-0.3c0.2-0.2,0.3-0.4,0.3-0.7s-0.1-0.5-0.3-0.7c-0.2-0.2-0.4-0.3-0.7-0.3h-7.7
	c-0.3,0-0.5,0.1-0.7,0.3c-0.2,0.2-0.3,0.4-0.3,0.7s0.1,0.5,0.3,0.7C73.3,54.7,73.6,54.8,73.8,54.8z"/>
<path class="st1" d="M75.8,50.9h5.8c0.3,0,0.5-0.1,0.7-0.3c0.2-0.2,0.3-0.4,0.3-0.7c0-0.3-0.1-0.5-0.3-0.7c-0.2-0.2-0.4-0.3-0.7-0.3
	h-5.8c-0.3,0-0.5,0.1-0.7,0.3c-0.2,0.2-0.3,0.4-0.3,0.7c0,0.3,0.1,0.5,0.3,0.7C75.3,50.8,75.5,50.9,75.8,50.9z"/>
<path class="st1" d="M61.3,39.3c0.6,0,1.1-0.2,1.6-0.5c0.5-0.3,0.8-0.8,1.1-1.3c0.2-0.5,0.3-1.1,0.2-1.7c-0.1-0.6-0.4-1.1-0.8-1.5
	c-0.4-0.4-0.9-0.7-1.5-0.8c-0.6-0.1-1.1-0.1-1.7,0.2c-0.5,0.2-1,0.6-1.3,1.1c-0.3,0.5-0.5,1-0.5,1.6c0,0.8,0.3,1.5,0.8,2.1
	C59.7,39,60.5,39.3,61.3,39.3L61.3,39.3z M61.3,35.4c0.2,0,0.4,0.1,0.5,0.2c0.2,0.1,0.3,0.3,0.4,0.4c0.1,0.2,0.1,0.4,0.1,0.6
	s-0.1,0.4-0.3,0.5c-0.1,0.1-0.3,0.2-0.5,0.3c-0.2,0-0.4,0-0.6-0.1s-0.3-0.2-0.4-0.4c-0.1-0.2-0.2-0.3-0.2-0.5c0-0.3,0.1-0.5,0.3-0.7
	C60.8,35.5,61,35.4,61.3,35.4z"/>
<path class="st1" d="M65.1,49.9h-1v-8.7c0-0.3-0.1-0.5-0.3-0.7c-0.2-0.2-0.4-0.3-0.7-0.3h-5.8c-0.3,0-0.5,0.1-0.7,0.3
	c-0.2,0.2-0.3,0.4-0.3,0.7s0.1,0.5,0.3,0.7c0.2,0.2,0.4,0.3,0.7,0.3h1v7.7h-1c-0.3,0-0.5,0.1-0.7,0.3c-0.2,0.2-0.3,0.4-0.3,0.7
	c0,0.3,0.1,0.5,0.3,0.7c0.2,0.2,0.4,0.3,0.7,0.3h7.7c0.3,0,0.5-0.1,0.7-0.3c0.2-0.2,0.3-0.4,0.3-0.7c0-0.3-0.1-0.5-0.3-0.7
	C65.6,50,65.4,49.9,65.1,49.9z M62.2,49.9h-1.9v-7.7h1.9V49.9z"/>
</svg>
