<?xml version="1.0" encoding="utf-8"?>
<!-- Generator: Adobe Illustrator 26.3.1, SVG Export Plug-In . SVG Version: 6.00 Build 0)  -->
<svg version="1.1" id="Layer_1" xmlns="http://www.w3.org/2000/svg" xmlns:xlink="http://www.w3.org/1999/xlink" x="0px" y="0px"
	 viewBox="0 0 120 120" style="enable-background:new 0 0 120 120;" xml:space="preserve">
<style type="text/css">
	.st0{fill:#FFF2F3;}
	.st1{fill:none;stroke:#C12F33;stroke-width:2;stroke-linecap:round;stroke-linejoin:round;stroke-miterlimit:10;}
</style>
<path class="st0" d="M60.5,0L60.5,0c33.1,0,60,26.9,60,60v0c0,33.1-26.9,60-60,60l0,0c-33.1,0-60-26.9-60-60v0
	C0.5,26.9,27.4,0,60.5,0z"/>
<circle class="st1" cx="60.2" cy="56.7" r="26"/>
<line class="st1" x1="31.2" y1="56.7" x2="37.2" y2="56.7"/>
<line class="st1" x1="83.2" y1="56.7" x2="89.2" y2="56.7"/>
<line class="st1" x1="66.2" y1="56.7" x2="72.2" y2="56.7"/>
<line class="st1" x1="48.2" y1="56.7" x2="54.2" y2="56.7"/>
<line class="st1" x1="60.2" y1="85.7" x2="60.2" y2="79.7"/>
<line class="st1" x1="60.2" y1="33.7" x2="60.2" y2="27.7"/>
<line class="st1" x1="60.2" y1="50.7" x2="60.2" y2="44.7"/>
<line class="st1" x1="60.2" y1="68.7" x2="60.2" y2="62.7"/>
<circle class="st1" cx="60.2" cy="56.7" r="6"/>
</svg>
