<?xml version="1.0" encoding="utf-8"?>
<!-- Generator: Adobe Illustrator 26.3.1, SVG Export Plug-In . SVG Version: 6.00 Build 0)  -->
<svg version="1.1" id="Layer_1" xmlns="http://www.w3.org/2000/svg" xmlns:xlink="http://www.w3.org/1999/xlink" x="0px" y="0px"
	 viewBox="0 0 120 120" style="enable-background:new 0 0 120 120;" xml:space="preserve">
<style type="text/css">
	.st0{fill:#FFF2F3;}
	.st1{fill:#C12F33;}
</style>
<path class="st0" d="M60.5,0L60.5,0c33.1,0,60,26.9,60,60v0c0,33.1-26.9,60-60,60l0,0c-33.1,0-60-26.9-60-60v0
	C0.5,26.9,27.4,0,60.5,0z"/>
<g>
	<path class="st1" d="M79.3,38.4v2.1c0.7,0,1.8,0,2.5,0.2c0.3,0.1,0.5,0.2,0.8,0.4c0.1,0.1,0.2,0.2,0.2,0.5v10.5
		c0,0.7,0.3,1.2,0.6,1.7s0.7,0.9,1.1,1.3c0.4,0.4,0.7,0.8,1,1.1l0,0.1c-0.2,0.2-0.6,0.6-1,1c-0.8,0.8-1.8,1.8-1.8,3.3v10.6
		c0,0.3-0.1,0.3-0.2,0.5c-0.2,0.1-0.5,0.3-0.9,0.4c-0.8,0.2-1.8,0.1-2.3,0.1v2.1c0.2,0,1.5,0.1,2.7-0.2c0.6-0.1,1.3-0.3,1.8-0.8
		c0.6-0.5,1-1.2,1-2.1V60.5c0-0.3,0.5-1.1,1.2-1.8c0.3-0.3,0.7-0.7,1-1c0.2-0.2,0.3-0.3,0.4-0.5c0.1-0.2,0.3-0.4,0.3-0.9
		c0-0.5-0.2-0.7-0.3-0.9c-0.1-0.2-0.3-0.4-0.4-0.6c-0.3-0.4-0.7-0.8-1-1.1c-0.3-0.3-0.6-0.7-0.9-1.1c-0.2-0.3-0.3-0.6-0.3-0.5V41.6
		c0-0.8-0.3-1.5-0.8-2c-0.5-0.5-1.1-0.7-1.7-0.9C81.2,38.4,80,38.4,79.3,38.4z M41.7,38.4c-0.7,0-1.9,0-3.1,0.3
		c-0.6,0.1-1.2,0.4-1.7,0.9c-0.5,0.5-0.8,1.2-0.8,2v10.5c0-0.1,0,0.2-0.3,0.5c-0.2,0.3-0.6,0.7-0.9,1.1c-0.4,0.4-0.7,0.8-1,1.1
		c-0.2,0.2-0.3,0.4-0.4,0.6c-0.1,0.2-0.3,0.4-0.3,0.9c0,0.5,0.2,0.7,0.3,0.9c0.1,0.2,0.3,0.4,0.5,0.5c0.3,0.3,0.7,0.7,1,1
		c0.7,0.7,1.2,1.4,1.2,1.8v10.6c0,0.9,0.4,1.6,1,2.1c0.6,0.5,1.2,0.7,1.8,0.8c1.2,0.3,2.5,0.2,2.7,0.2v-2.1c-0.5,0-1.5,0-2.3-0.1
		c-0.4-0.1-0.8-0.2-0.9-0.4c-0.2-0.1-0.2-0.2-0.2-0.5V60.5c0-1.5-1-2.5-1.8-3.3c-0.4-0.4-0.8-0.7-1-1l0-0.1c0.2-0.3,0.6-0.7,1-1.1
		c0.4-0.4,0.8-0.9,1.1-1.3c0.3-0.5,0.6-1,0.6-1.7V41.6c0-0.3,0.1-0.4,0.2-0.5c0.2-0.2,0.5-0.3,0.8-0.4c0.7-0.2,1.8-0.2,2.5-0.2
		L41.7,38.4L41.7,38.4z M67.7,38.5c-0.7,0.1-1.4,0.5-1.8,1.1L62.7,44l0,0L47.6,65l-1.9,11.8l10.6-5.6l15.1-21h0l0.7-0.9l2.5-3.5
		c0.9-1.2,0.6-3-0.6-3.9l-4.2-3C69.2,38.5,68.4,38.4,67.7,38.5L67.7,38.5z M68,40.5c0.2,0,0.4,0,0.5,0.1l4.2,3
		c0.3,0.2,0.4,0.6,0.2,0.9l-2.5,3.5l-5.3-3.7l2.5-3.5C67.7,40.7,67.9,40.6,68,40.5z M63.9,46.1l5.2,3.7L55.8,68.3l-5.3-3.8
		C50.5,64.5,63.9,46.1,63.9,46.1z M49.5,66.4l4.9,3.5l-6,3.1L49.5,66.4z"/>
</g>
</svg>
