<?xml version="1.0" encoding="utf-8"?>
<!-- Generator: Adobe Illustrator 26.3.1, SVG Export Plug-In . SVG Version: 6.00 Build 0)  -->
<svg version="1.1" id="Layer_1" xmlns="http://www.w3.org/2000/svg" xmlns:xlink="http://www.w3.org/1999/xlink" x="0px" y="0px"
	 viewBox="0 0 120 120" style="enable-background:new 0 0 120 120;" xml:space="preserve">
<style type="text/css">
	.st0{fill:#FFF2F3;}
	.st1{fill:#C12F33;}
</style>
<path class="st0" d="M60.5,0L60.5,0c33.1,0,60,26.9,60,60v0c0,33.1-26.9,60-60,60l0,0c-33.1,0-60-26.9-60-60v0
	C0.5,26.9,27.4,0,60.5,0z"/>
<g id="Storage_media-data-technology-manage">
	<path class="st1" d="M86.1,28h-7.6c-1,0-1.9,0.9-1.9,1.9v5.7h-4.8c-1.6,0-2.8,1.3-2.8,2.9v10.5h1.9V38.4c0-0.5,0.4-1,0.9-1h4.8v5.7
		c0,1,0.9,1.9,1.9,1.9h7.6c1,0,1.9-0.9,1.9-1.9V29.9C88,28.8,87.1,28,86.1,28z M78.5,43.2V29.9h7.6v13.3H78.5z"/>
	<path class="st1" d="M76.6,56.5c0-3.7-3-6.6-6.6-6.7c-0.8,0-1.6,0.1-2.3,0.4c-1.3-4.5-6.1-7.1-10.6-5.7c-2.6,0.8-4.7,2.8-5.6,5.4
		c-3.7-0.3-6.9,2.4-7.2,6.1c-0.3,3.7,2.4,6.9,6.1,7.2c0.2,0,0.4,0,0.6,0h19C73.6,63.1,76.6,60.2,76.6,56.5z M46.2,56.5
		c0-2.6,2.1-4.7,4.8-4.8c0.3,0,0.7,0,1,0.1c0.5,0.1,1-0.2,1.1-0.7c0.9-3.6,4.4-5.8,8-4.9c2.7,0.6,4.6,2.8,5,5.5
		c0.1,0.5,0.6,0.9,1.1,0.8c0.1,0,0.2-0.1,0.4-0.1c2.2-1.4,5.2-0.6,6.5,1.6c1.4,2.2,0.6,5.2-1.6,6.5c-0.7,0.5-1.6,0.7-2.5,0.7h-19
		C48.3,61.2,46.2,59.1,46.2,56.5z"/>
	<path class="st1" d="M31.9,37.5h3.8v1.9h-1.9v1.9h3.8v1.9c0,1.6,1.3,2.8,2.8,2.8h6.7c0.5,0,1,0.4,1,1v1.9H50V47
		c0-1.6-1.3-2.8-2.8-2.8h-6.7c-0.5,0-0.9-0.4-0.9-1v-1.9h3.8v-1.9h-1.9v-1.9h3.8c0.5,0,1-0.4,1-1v-7.6c0-0.5-0.4-1-1-1H31.9
		c-0.5,0-0.9,0.4-0.9,1v7.6C31,37.1,31.4,37.5,31.9,37.5z M39.5,39.4h-1.9v-1.9h1.9V39.4z M32.9,29.9h11.4v5.7H32.9V29.9z"/>
	<path class="st1" d="M83,67.2c-0.2-0.2-0.4-0.3-0.7-0.3h-3.8c-0.3,0-0.5,0.1-0.7,0.3l-1.9,1.9c-0.2,0.2-0.3,0.4-0.3,0.7v11.4
		c0,0.5,0.4,0.9,0.9,0.9h7.6c0.5,0,0.9-0.4,0.9-0.9V69.8c0-0.3-0.1-0.5-0.3-0.7L83,67.2z M83.2,80.2h-5.7V70.2l1.3-1.3h3l1.3,1.3
		V80.2z"/>
	<rect x="78.5" y="70.7" class="st1" width="3.8" height="1.9"/>
	<rect x="79.4" y="40.3" class="st1" width="5.7" height="1.9"/>
	<path class="st1" d="M85.1,64.1h-9.5c-1.6,0-2.8,1.3-2.8,2.8v8.6h-2.8c-0.5,0-1-0.4-1-1V64.1h-1.9v10.4c0,1.6,1.3,2.8,2.9,2.8h2.8
		v4.8c0,1.6,1.3,2.9,2.8,2.9h9.5c1.6,0,2.8-1.3,2.8-2.9V66.9C88,65.4,86.7,64.1,85.1,64.1z M86.1,82.1c0,0.5-0.4,1-0.9,1h-9.5
		c-0.5,0-0.9-0.4-0.9-1V66.9c0-0.5,0.4-0.9,0.9-0.9h9.5c0.5,0,0.9,0.4,0.9,0.9V82.1z"/>
	<circle class="st1" cx="80.4" cy="77.4" r="1.9"/>
	<path class="st1" d="M48.1,74.5c0,0.5-0.4,1-1,1h-2.8v-4.8c0-2-3.3-2.9-6.7-2.9S31,68.8,31,70.7v11.4c0,2,3.3,2.9,6.6,2.9
		s6.7-0.9,6.7-2.9v-4.8h2.8c1.6,0,2.8-1.3,2.8-2.8V64.1h-1.9V74.5z M42.4,78.2c-0.2,0.3-1.9,1-4.8,1c-2.9,0-4.5-0.7-4.8-1v-1.6
		c1.5,0.5,3.1,0.8,4.8,0.8c1.6,0,3.2-0.2,4.8-0.8V78.2z M32.9,72.8c1.5,0.5,3.1,0.8,4.8,0.8c1.6,0,3.2-0.2,4.8-0.8v1.6
		c-0.2,0.3-1.9,1-4.8,1c-2.9,0-4.5-0.7-4.8-1V72.8z M37.6,69.8c2.6,0,4.2,0.6,4.7,1c-0.4,0.4-2,0.9-4.7,0.9s-4.2-0.6-4.7-0.9
		C33.4,70.4,35,69.8,37.6,69.8z M37.6,83.1c-2.8,0-4.5-0.7-4.8-1v-1.6c1.5,0.5,3.1,0.8,4.8,0.8c1.6,0,3.2-0.2,4.8-0.8v1.6
		C42.1,82.4,40.5,83.1,37.6,83.1z"/>
</g>
</svg>
