<?xml version="1.0" encoding="utf-8"?>
<!-- Generator: Adobe Illustrator 26.3.1, SVG Export Plug-In . SVG Version: 6.00 Build 0)  -->
<svg version="1.1" id="Layer_1" xmlns="http://www.w3.org/2000/svg" xmlns:xlink="http://www.w3.org/1999/xlink" x="0px" y="0px"
	 viewBox="0 0 120 120" style="enable-background:new 0 0 120 120;" xml:space="preserve">
<style type="text/css">
	.st0{fill:#FFF2F3;}
	.st1{fill-rule:evenodd;clip-rule:evenodd;fill:#C12F33;}
</style>
<path class="st0" d="M60.5,0L60.5,0c33.1,0,60,26.9,60,60v0c0,33.1-26.9,60-60,60l0,0c-33.1,0-60-26.9-60-60v0
	C0.5,26.9,27.4,0,60.5,0z"/>
<g>
	<path class="st1" d="M67.1,85.3H41.3c-2.5,0-4.6-2.1-4.6-4.6l0-48.4c0-2.5,2-4.6,4.6-4.6l25.8,0c2.5,0,4.6,2.1,4.6,4.6l0,8.6
		c0,0.4-0.3,0.7-0.7,0.7c-0.4,0-0.7-0.3-0.7-0.7l0-8.6c0-1.8-1.5-3.3-3.3-3.3H41.3c-1.8,0-3.3,1.5-3.3,3.3l0,48.4
		c0,1.8,1.5,3.3,3.3,3.3l25.8,0c1.8,0,3.3-1.5,3.3-3.3l0-8.6c0-0.4,0.3-0.7,0.7-0.7c0.4,0,0.7,0.3,0.7,0.7l0,8.6
		C71.7,83.2,69.7,85.3,67.1,85.3L67.1,85.3z"/>
	<path class="st1" d="M71,34.7H37.4c-0.4,0-0.7-0.3-0.7-0.7c0-0.4,0.3-0.7,0.7-0.7H71c0.4,0,0.7,0.3,0.7,0.7
		C71.7,34.4,71.4,34.7,71,34.7L71,34.7z M71,79.6H37.4c-0.4,0-0.7-0.3-0.7-0.7c0-0.4,0.3-0.7,0.7-0.7l33.6,0c0.4,0,0.7,0.3,0.7,0.7
		C71.7,79.3,71.4,79.6,71,79.6L71,79.6z M69.5,71.4h3.2v-2.7c0-0.3,0.2-0.6,0.5-0.6c1.6-0.3,3.2-0.9,4.5-1.9
		c0.3-0.2,0.6-0.1,0.8,0.1l1.9,1.9l2.3-2.3L80.8,64c-0.2-0.2-0.3-0.6-0.1-0.8c0.9-1.4,1.6-2.9,1.9-4.5c0.1-0.3,0.3-0.5,0.6-0.5
		l2.7,0v-3.2h-2.7c-0.3,0-0.6-0.2-0.6-0.5c-0.3-1.6-0.9-3.2-1.9-4.5c-0.2-0.3-0.1-0.6,0.1-0.8l1.9-1.9l-2.3-2.3l-1.9,1.9
		C78.3,47,78,47,77.7,46.8c-1.4-0.9-2.9-1.6-4.5-1.9c-0.3-0.1-0.5-0.3-0.5-0.6v-2.7h-3.2v2.7c0,0.3-0.2,0.6-0.5,0.6
		c-1.6,0.3-3.2,0.9-4.5,1.9c-0.3,0.2-0.6,0.1-0.8-0.1l-1.9-1.9l-2.3,2.3l1.9,1.9c0.2,0.2,0.3,0.6,0.1,0.8c-0.9,1.4-1.6,2.9-1.9,4.5
		c-0.1,0.3-0.3,0.5-0.6,0.5l-2.7,0v3.2h2.7c0.3,0,0.6,0.2,0.6,0.5c0.3,1.6,0.9,3.2,1.9,4.5c0.2,0.3,0.1,0.6-0.1,0.8l-1.9,1.9
		l2.3,2.3l1.9-1.9c0.2-0.2,0.6-0.3,0.8-0.1c1.4,0.9,2.9,1.6,4.5,1.9c0.3,0.1,0.5,0.3,0.5,0.6L69.5,71.4L69.5,71.4z M73.3,72.7h-4.5
		c-0.4,0-0.7-0.3-0.7-0.7l0-2.8c-1.4-0.3-2.8-0.9-4-1.7l-2,2c-0.1,0.1-0.3,0.2-0.5,0.2c-0.2,0-0.3-0.1-0.5-0.2L58,66.4
		c-0.3-0.3-0.3-0.7,0-0.9l2-2c-0.8-1.2-1.3-2.6-1.7-4l-2.8,0c-0.4,0-0.7-0.3-0.7-0.7v-4.5c0-0.4,0.3-0.7,0.7-0.7l2.8,0
		c0.3-1.4,0.9-2.8,1.7-4l-2-2c-0.1-0.1-0.2-0.3-0.2-0.5c0-0.2,0.1-0.3,0.2-0.5l3.2-3.2c0.3-0.3,0.7-0.3,0.9,0l2,2
		c1.2-0.8,2.6-1.3,4-1.7l0-2.8c0-0.4,0.3-0.7,0.7-0.7l4.5,0c0.4,0,0.7,0.3,0.7,0.7l0,2.8c1.4,0.3,2.8,0.9,4,1.7l2-2
		c0.1-0.1,0.3-0.2,0.5-0.2l0,0c0.2,0,0.3,0.1,0.5,0.2l3.2,3.2c0.3,0.3,0.3,0.7,0,0.9l-2,2c0.8,1.2,1.3,2.6,1.7,4l2.8,0
		c0.4,0,0.7,0.3,0.7,0.7l0,4.5c0,0.4-0.3,0.7-0.7,0.7l-2.8,0c-0.3,1.4-0.9,2.8-1.7,4l2,2c0.1,0.1,0.2,0.3,0.2,0.5
		c0,0.2-0.1,0.3-0.2,0.5l-3.2,3.2c-0.3,0.3-0.7,0.3-0.9,0l-2-2c-1.2,0.8-2.6,1.3-4,1.7l0,2.8C74,72.4,73.7,72.7,73.3,72.7L73.3,72.7
		z"/>
	<path class="st1" d="M71,48.6c-4.4,0-7.9,3.5-7.9,7.9c0,4.4,3.5,7.9,7.9,7.9c4.4,0,7.9-3.5,7.9-7.9C78.9,52.1,75.4,48.6,71,48.6z
		 M71,65.7c-5.1,0-9.2-4.1-9.2-9.2c0-5.1,4.1-9.2,9.2-9.2c5.1,0,9.2,4.1,9.2,9.2C80.3,61.6,76.1,65.7,71,65.7z"/>
	<path class="st1" d="M72.2,57c-0.2,0-0.5-0.1-0.6-0.3l-2.3-4.3c-0.2-0.3-0.1-0.7,0.3-0.9c0.3-0.2,0.7-0.1,0.9,0.3l2.3,4.3
		c0.2,0.3,0.1,0.7-0.3,0.9C72.4,56.9,72.3,57,72.2,57L72.2,57z M68.3,57c-0.1,0-0.3,0-0.4-0.1L65,54.6c-0.2-0.1-0.3-0.3-0.3-0.5
		c0-0.2,0.1-0.4,0.3-0.5l2.8-2.2c0.3-0.2,0.7-0.2,0.9,0.1c0.2,0.3,0.2,0.7-0.1,0.9l-2.2,1.7l2.2,1.7c0.3,0.2,0.3,0.6,0.1,0.9
		C68.7,56.9,68.5,57,68.3,57L68.3,57z M73.8,57c-0.2,0-0.4-0.1-0.5-0.3c-0.2-0.3-0.2-0.7,0.1-0.9l2.2-1.7l-2.2-1.7
		c-0.3-0.2-0.3-0.6-0.1-0.9c0.2-0.3,0.6-0.3,0.9-0.1l2.8,2.2c0.2,0.1,0.3,0.3,0.3,0.5c0,0.2-0.1,0.4-0.3,0.5l-2.8,2.2
		C74.1,56.9,74,57,73.8,57L73.8,57z M75,59.3h-7.9c-0.4,0-0.7-0.3-0.7-0.7c0-0.4,0.3-0.7,0.7-0.7l7.9,0c0.4,0,0.7,0.3,0.7,0.7
		C75.6,59.1,75.3,59.3,75,59.3L75,59.3L75,59.3z M75,61.7h-7.9c-0.4,0-0.7-0.3-0.7-0.7c0-0.4,0.3-0.7,0.7-0.7l7.9,0
		c0.4,0,0.7,0.3,0.7,0.7C75.6,61.4,75.3,61.7,75,61.7L75,61.7L75,61.7z M64.5,41.2H44c-0.4,0-0.7-0.3-0.7-0.7c0-0.4,0.3-0.7,0.7-0.7
		l20.5,0c0.4,0,0.7,0.3,0.7,0.7C65.1,40.9,64.9,41.2,64.5,41.2z M55.2,47.6H44c-0.4,0-0.7-0.3-0.7-0.7c0-0.4,0.3-0.7,0.7-0.7l11.2,0
		c0.4,0,0.7,0.3,0.7,0.7C55.9,47.3,55.6,47.6,55.2,47.6L55.2,47.6z M51.4,53.9H44c-0.4,0-0.7-0.3-0.7-0.7c0-0.4,0.3-0.7,0.7-0.7
		l7.4,0c0.4,0,0.7,0.3,0.7,0.7C52,53.7,51.7,53.9,51.4,53.9z M52.1,60.3H44c-0.4,0-0.7-0.3-0.7-0.7c0-0.4,0.3-0.7,0.7-0.7l8.1,0
		c0.4,0,0.7,0.3,0.7,0.7C52.7,60.1,52.5,60.3,52.1,60.3L52.1,60.3L52.1,60.3z M54.5,66.7H44c-0.4,0-0.7-0.3-0.7-0.7
		c0-0.4,0.3-0.7,0.7-0.7h10.5c0.4,0,0.7,0.3,0.7,0.7C55.2,66.4,54.9,66.7,54.5,66.7z M64.5,73.1H44c-0.4,0-0.7-0.3-0.7-0.7
		c0-0.4,0.3-0.7,0.7-0.7l20.5,0c0.4,0,0.7,0.3,0.7,0.7C65.1,72.8,64.9,73.1,64.5,73.1L64.5,73.1z"/>
</g>
</svg>
