<?xml version="1.0" encoding="utf-8"?>
<!-- Generator: Adobe Illustrator 26.3.1, SVG Export Plug-In . SVG Version: 6.00 Build 0)  -->
<svg version="1.1" id="Layer_1" xmlns="http://www.w3.org/2000/svg" xmlns:xlink="http://www.w3.org/1999/xlink" x="0px" y="0px"
	 viewBox="0 0 120 120" style="enable-background:new 0 0 120 120;" xml:space="preserve">
<style type="text/css">
	.st0{fill:#FFF2F3;}
	.st1{fill:#C12F33;}
</style>
<path class="st0" d="M60.5,0L60.5,0c33.1,0,60,26.9,60,60v0c0,33.1-26.9,60-60,60l0,0c-33.1,0-60-26.9-60-60v0
	C0.5,26.9,27.4,0,60.5,0z"/>
<g>
	<path class="st1" d="M87,33.7H75.6l-6.3-6.3c-0.2-0.2-0.4-0.3-0.7-0.3H46.1c-0.5,0-0.9,0.4-0.9,0.9v5.6h-9.9
		c-1.8,0-3.3,1.5-3.3,3.3v35.7c0,1.8,1.5,3.3,3.3,3.3h18L52,80.7h-4c-0.5,0-0.9,0.4-0.9,0.9v2.8c0,0.5,0.4,0.9,0.9,0.9h26.3
		c0.5,0,0.9-0.4,0.9-0.9v-2.8c0-0.5-0.4-0.9-0.9-0.9h-4L69,76h18c1.8,0,3.3-1.5,3.3-3.3V37C90.3,35.2,88.8,33.7,87,33.7z M69.6,30.4
		l4.3,4.3h-4.3V30.4z M47,29h20.7v6.6c0,0.5,0.4,0.9,0.9,0.9h6.6v29.1H47V29z M73.4,82.6v0.9H48.9v-0.9H73.4z M53.9,80.7l1.3-4.7H67
		l1.3,4.7H53.9z M88.4,72.8c0,0.8-0.6,1.4-1.4,1.4H35.3c-0.8,0-1.4-0.6-1.4-1.4v-2.4h54.5V72.8z M88.4,68.5H33.9V37
		c0-0.8,0.6-1.4,1.4-1.4h9.9v31c0,0.5,0.4,0.9,0.9,0.9h30.1c0.5,0,0.9-0.4,0.9-0.9v-31H87c0.8,0,1.4,0.6,1.4,1.4V68.5z"/>
	<path class="st1" d="M49.8,43.1h10.3c0.5,0,0.9-0.4,0.9-0.9V31.9c0-0.5-0.4-0.9-0.9-0.9H49.8c-0.5,0-0.9,0.4-0.9,0.9v10.3
		C48.9,42.7,49.3,43.1,49.8,43.1z M50.8,32.8h8.5v8.5h-8.5V32.8z"/>
	<path class="st1" d="M72.4,45H49.8c-0.5,0-0.9,0.4-0.9,0.9s0.4,0.9,0.9,0.9h22.6c0.5,0,0.9-0.4,0.9-0.9S72.9,45,72.4,45z"/>
	<path class="st1" d="M72.4,47.8H49.8c-0.5,0-0.9,0.4-0.9,0.9s0.4,0.9,0.9,0.9h22.6c0.5,0,0.9-0.4,0.9-0.9S72.9,47.8,72.4,47.8z"/>
	<path class="st1" d="M72.4,50.7H49.8c-0.5,0-0.9,0.4-0.9,0.9c0,0.5,0.4,0.9,0.9,0.9h22.6c0.5,0,0.9-0.4,0.9-0.9
		C73.4,51.1,72.9,50.7,72.4,50.7z"/>
	<path class="st1" d="M49.8,55.4h16.9c0.5,0,0.9-0.4,0.9-0.9c0-0.5-0.4-0.9-0.9-0.9H49.8c-0.5,0-0.9,0.4-0.9,0.9
		C48.9,54.9,49.3,55.4,49.8,55.4z"/>
	<path class="st1" d="M72.4,59.1H49.8c-0.5,0-0.9,0.4-0.9,0.9c0,0.5,0.4,0.9,0.9,0.9h22.6c0.5,0,0.9-0.4,0.9-0.9
		C73.4,59.5,72.9,59.1,72.4,59.1z"/>
	<path class="st1" d="M66.8,61.9H49.8c-0.5,0-0.9,0.4-0.9,0.9s0.4,0.9,0.9,0.9h16.9c0.5,0,0.9-0.4,0.9-0.9S67.3,61.9,66.8,61.9z"/>
</g>
</svg>
