<?xml version="1.0" encoding="utf-8"?>
<!-- Generator: Adobe Illustrator 26.3.1, SVG Export Plug-In . SVG Version: 6.00 Build 0)  -->
<svg version="1.1" id="Layer_1" xmlns="http://www.w3.org/2000/svg" xmlns:xlink="http://www.w3.org/1999/xlink" x="0px" y="0px"
	 viewBox="0 0 120 120" style="enable-background:new 0 0 120 120;" xml:space="preserve">
<style type="text/css">
	.st0{fill:#FFF2F3;}
	.st1{fill:#C12F33;}
</style>
<path class="st0" d="M60.5,0L60.5,0c33.1,0,60,26.9,60,60v0c0,33.1-26.9,60-60,60l0,0c-33.1,0-60-26.9-60-60v0
	C0.5,26.9,27.4,0,60.5,0z"/>
<g>
	<path class="st1" d="M52.5,43c1.6-1.3,2.6-3.3,2.6-5.5c0-4-3.2-7.3-7.3-7.3s-7.3,3.2-7.3,7.3c0,2.2,1,4.2,2.6,5.5
		c-5,1.9-8.5,6.8-8.5,12.4v0.7c0,0.7,0.6,1.3,1.3,1.3h23.8c0.7,0,1.3-0.6,1.3-1.3v-0.7C61.1,49.8,57.6,44.9,52.5,43z M43.2,37.5
		c0-2.6,2.1-4.6,4.6-4.6s4.6,2.1,4.6,4.6s-2.1,4.6-4.6,4.6S43.2,40.1,43.2,37.5z M37.2,54.7c0.3-5.6,5-9.9,10.6-9.9
		s10.3,4.4,10.6,9.9H37.2z M81.7,68.2c1.6-1.3,2.6-3.3,2.6-5.5c0-4-3.2-7.3-7.3-7.3c-4,0-7.3,3.2-7.3,7.3c0,2.2,1,4.2,2.6,5.5
		c-5,1.9-8.5,6.8-8.5,12.4v0.7c0,0.7,0.6,1.3,1.3,1.3h23.8c0.7,0,1.3-0.6,1.3-1.3v-0.7C90.2,74.9,86.7,70.1,81.7,68.2z M72.3,62.7
		c0-2.6,2.1-4.6,4.6-4.6s4.6,2.1,4.6,4.6c0,2.6-2.1,4.6-4.6,4.6S72.3,65.3,72.3,62.7z M66.4,79.9c0.3-5.6,5-9.9,10.6-9.9
		s10.3,4.4,10.6,9.9H66.4z M62.5,37.3c0-0.1,0-0.1-0.1-0.1c-0.1-0.2-0.1-0.3,0-0.5c0-0.1,0-0.1,0.1-0.1c0-0.1,0-0.1,0.1-0.1
		c0-0.1,0.1-0.1,0.1-0.1c0-0.1,0.1-0.1,0.1-0.1c0.1-0.1,0.1-0.1,0.2-0.2l5.3-5.3c0.5-0.5,1.3-0.5,1.9,0s0.5,1.3,0,1.9l-3,3h10
		c0.7,0,1.3,0.6,1.3,1.3c0,0.1,0,0.1,0,0.1c0,0.1,0,0.1,0,0.1V50c0,0.7-0.6,1.3-1.3,1.3c-0.7,0-1.3-0.6-1.3-1.3V38.1h-8.7l3,3
		c0.5,0.5,0.5,1.3,0,1.9c-0.3,0.3-0.6,0.4-0.9,0.4s-0.7-0.1-0.9-0.4l-5.3-5.3c-0.1-0.1-0.1-0.1-0.2-0.2
		C62.6,37.5,62.5,37.4,62.5,37.3C62.5,37.3,62.5,37.3,62.5,37.3C62.5,37.3,62.5,37.3,62.5,37.3z M56.9,76.6
		C56.9,76.6,56.9,76.7,56.9,76.6c-0.1,0.1-0.2,0.2-0.3,0.3l-5.3,5.3c-0.3,0.3-0.6,0.4-0.9,0.4c-0.3,0-0.7-0.1-0.9-0.4
		c-0.5-0.5-0.5-1.3,0-1.9l3-3h-10c-0.7,0-1.3-0.6-1.3-1.3c0-0.1,0-0.1,0-0.1c0-0.1,0-0.1,0-0.1v-13c0-0.7,0.6-1.3,1.3-1.3
		c0.7,0,1.3,0.6,1.3,1.3v11.9h8.7l-3-3c-0.5-0.5-0.5-1.3,0-1.9c0.5-0.5,1.3-0.5,1.9,0l5.3,5.3c0.1,0.1,0.1,0.1,0.2,0.2l0.1,0.1
		c0,0.1,0.1,0.1,0.1,0.1s0,0.1,0.1,0.1c0,0.1,0,0.1,0.1,0.1c0.1,0.2,0.1,0.3,0,0.5c0,0.1,0,0.1-0.1,0.1c0,0.1,0,0.1-0.1,0.1
		C57,76.5,57,76.5,56.9,76.6z"/>
</g>
</svg>
