<?xml version="1.0" encoding="utf-8"?>
<!-- Generator: Adobe Illustrator 26.3.1, SVG Export Plug-In . SVG Version: 6.00 Build 0)  -->
<svg version="1.1" id="Layer_1" xmlns="http://www.w3.org/2000/svg" xmlns:xlink="http://www.w3.org/1999/xlink" x="0px" y="0px"
	 viewBox="0 0 120 120" style="enable-background:new 0 0 120 120;" xml:space="preserve">
<style type="text/css">
	.st0{fill:#FFF2F3;}
	.st1{fill:#C12F33;}
</style>
<path class="st0" d="M60.5,0L60.5,0c33.1,0,60,26.9,60,60v0c0,33.1-26.9,60-60,60l0,0c-33.1,0-60-26.9-60-60v0
	C0.5,26.9,27.4,0,60.5,0z"/>
<g id="customer">
	<rect x="57.7" y="39.2" class="st1" width="1.9" height="1.9"/>
	<rect x="61.5" y="39.2" class="st1" width="1.9" height="1.9"/>
	<path class="st1" d="M88.9,53l-5.2-14.8c-0.4-1.1-1.5-1.9-2.7-1.9h-0.9c-0.9,0-1.7,0.4-2.3,1.1c-0.5,0.7-0.7,1.6-0.5,2.5l4,13.5
		v7.2l-2.8,5.1v-7.7c0-1.6-1.3-2.8-2.8-2.8h-0.5c-0.7,0-1.5,0.3-2,0.8c-1.3-2-3.4-3.3-5.8-3.6l-2.6-0.9l-0.5-0.5v-2.7
		c1.8-1.2,2.8-3.3,2.8-5.4v-2.8c1.6,0,2.8-1.3,2.8-2.8v-1.9c0-3.7-3-6.6-6.6-6.6H52.1c-0.5,0-0.9,0.4-0.9,0.9v3.8
		c0,2.2,1.1,4.2,2.8,5.4v4c0,2.2,1.1,4.2,2.8,5.4v2.7l-0.5,0.5l-2.6,0.9c-2.4,0.3-4.5,1.6-5.8,3.6c-0.5-0.5-1.2-0.8-2-0.8h-0.5
		c-1.6,0-2.8,1.3-2.8,2.8v7.7l-2.8-5.1v-7.2l4-13.5c0.2-0.9,0.1-1.8-0.5-2.5c-0.5-0.7-1.4-1.1-2.3-1.1h-0.9c-1.2,0-2.3,0.8-2.7,1.9
		L32.3,53c0,0.1-0.1,0.2-0.1,0.3v14.2c0,0.1,0,0.2,0,0.3l3.4,10.1h-1.5c-0.5,0-0.9,0.4-0.9,0.9v5.7c0,0.5,0.4,0.9,0.9,0.9h20.8
		c0.5,0,0.9-0.4,0.9-0.9v-0.9h9.4v0.9c0,0.5,0.4,0.9,0.9,0.9H87c0.5,0,0.9-0.4,0.9-0.9v-5.7c0-0.5-0.4-0.9-0.9-0.9h-1.5l3.4-10.1
		c0-0.1,0-0.2,0-0.3V53.3C88.9,53.2,88.9,53.1,88.9,53z M54.2,36.6c-0.8-0.9-1.2-2-1.2-3.1v-2.8h10.4c2.6,0,4.7,2.1,4.7,4.7v1.9
		c0,0.5-0.4,0.9-0.9,0.9v-0.9c0-0.4-0.3-0.8-0.7-0.9l-7.6-1.9c-0.2-0.1-0.5,0-0.7,0.1l-3.8,1.9C54.4,36.5,54.3,36.6,54.2,36.6z
		 M55.9,42.9v-5.1l2.9-1.5l6.5,1.6v4.9c0,2.6-2.1,4.7-4.7,4.7C58,47.7,55.9,45.6,55.9,42.9z M62.7,52.1l0.3,0.3l-2.4,2.4l-2.4-2.4
		l0.3-0.3c0.2-0.2,0.3-0.4,0.3-0.7v-2.2c1.2,0.4,2.5,0.4,3.8,0v2.2C62.5,51.7,62.6,51.9,62.7,52.1z M56.5,53.5l3.4,3.4
		c0.4,0.4,1,0.4,1.3,0l3.4-3.4l1.2,0.4l-3.9,7h-2.7l-3.9-7L56.5,53.5z M63.3,72.9l-2.8,2.8l-2.8-2.8l1.7-10.1h2.2L63.3,72.9z
		 M34.1,67.4V53.5l5.2-14.6c0.1-0.4,0.5-0.6,0.9-0.6H41c0.5,0,0.9,0.4,0.9,0.9c0,0.1,0,0.2,0,0.3l-4,13.6c0,0.1,0,0.2,0,0.3v7.6
		c0,0.2,0,0.3,0.1,0.5l4.7,8.5c0.3,0.5,0.8,0.6,1.3,0.4c0.3-0.2,0.5-0.5,0.5-0.8V58.1c0-0.5,0.4-0.9,0.9-0.9h0.5
		c0.4,0,0.8,0.3,0.9,0.7l4.3,14.6v5.5H37.6L34.1,67.4z M54,83.6H35.1v-3.8H54V83.6z M65.3,78.8v2.8h-9.4v-2.8c0-0.5-0.4-0.9-0.9-0.9
		H53v-5.7c0-0.1,0-0.2,0-0.3l-4.1-13.8c0.8-1.9,2.5-3.3,4.6-3.7l4.2,7.6l-1.8,11c0,0.3,0.1,0.6,0.3,0.8l3.8,3.8c0.4,0.4,1,0.4,1.3,0
		l3.8-3.8c0.2-0.2,0.3-0.5,0.3-0.8l-1.8-11l4.2-7.6c2,0.5,3.7,1.8,4.6,3.7L68.2,72c0,0.1,0,0.2,0,0.3v5.7h-1.9
		C65.7,77.9,65.3,78.3,65.3,78.8z M86.1,79.8v3.8H67.2v-3.8H86.1z M87,67.4l-3.5,10.5H70v-5.5l4.3-14.6c0.1-0.4,0.5-0.7,0.9-0.7h0.5
		c0.5,0,0.9,0.4,0.9,0.9v11.3c0,0.5,0.4,0.9,0.9,0.9c0.3,0,0.7-0.2,0.8-0.5l4.7-8.5c0.1-0.1,0.1-0.3,0.1-0.5v-7.6c0-0.1,0-0.2,0-0.3
		l-4-13.6c-0.1-0.5,0.1-1,0.6-1.2c0.1,0,0.2,0,0.3,0H81c0.4,0,0.8,0.3,0.9,0.6L87,53.5V67.4z"/>
	<polygon class="st1" points="74.7,33.5 76.6,33.5 76.6,31.6 78.5,31.6 78.5,29.7 76.6,29.7 76.6,27.8 74.7,27.8 74.7,29.7 
		72.9,29.7 72.9,31.6 74.7,31.6 	"/>
	<polygon class="st1" points="84.2,35.4 86.1,35.4 86.1,33.5 88,33.5 88,31.6 86.1,31.6 86.1,29.7 84.2,29.7 84.2,31.6 82.3,31.6 
		82.3,33.5 84.2,33.5 	"/>
	<polygon class="st1" points="44.5,33.5 46.4,33.5 46.4,31.6 48.3,31.6 48.3,29.7 46.4,29.7 46.4,27.8 44.5,27.8 44.5,29.7 
		42.6,29.7 42.6,31.6 44.5,31.6 	"/>
	<polygon class="st1" points="35.1,35.4 37,35.4 37,33.5 38.8,33.5 38.8,31.6 37,31.6 37,29.7 35.1,29.7 35.1,31.6 33.2,31.6 
		33.2,33.5 35.1,33.5 	"/>
</g>
</svg>
