<?xml version="1.0" encoding="utf-8"?>
<!-- Generator: Adobe Illustrator 26.3.1, SVG Export Plug-In . SVG Version: 6.00 Build 0)  -->
<svg version="1.1" id="Layer_1" xmlns="http://www.w3.org/2000/svg" xmlns:xlink="http://www.w3.org/1999/xlink" x="0px" y="0px"
	 viewBox="0 0 120 120" style="enable-background:new 0 0 120 120;" xml:space="preserve">
<style type="text/css">
	.st0{fill:#FFF2F3;}
	.st1{fill:#C12F33;}
</style>
<path class="st0" d="M60.5,0L60.5,0c33.1,0,60,26.9,60,60v0c0,33.1-26.9,60-60,60l0,0c-33.1,0-60-26.9-60-60v0
	C0.5,26.9,27.4,0,60.5,0z"/>
<g id="Layer_1_00000072959714635974872690000000184657491149708178_">
	<path class="st1" d="M80.5,35.3H69.9v-7.1H51v7.1H40.3v13h-8.3v16.5h8.3v13H51v7.1h18.9v-7.1h10.6v-13h8.3V48.3h-8.3V35.3z
		 M53.3,30.6h14.2v11.8H53.3V30.6z M34.4,50.7h14.2v11.8H34.4V50.7z M67.5,82.6H53.3V70.7h14.2V82.6z M78.1,75.5h-8.3v-7.1H51v7.1
		h-8.3V64.8H51V48.3h-8.3V37.7H51v7.1h18.9v-7.1h8.3v10.6h-8.3v16.5h8.3V75.5z M86.4,62.5H72.2V50.7h14.2V62.5z"/>
</g>
</svg>
