<?xml version="1.0" encoding="utf-8"?>
<!-- Generator: Adobe Illustrator 26.3.1, SVG Export Plug-In . SVG Version: 6.00 Build 0)  -->
<svg version="1.1" id="Layer_1" xmlns="http://www.w3.org/2000/svg" xmlns:xlink="http://www.w3.org/1999/xlink" x="0px" y="0px"
	 viewBox="0 0 120 120" style="enable-background:new 0 0 120 120;" xml:space="preserve">
<style type="text/css">
	.st0{fill:#FFF2F3;}
	.st1{fill:#C12F33;}
</style>
<path class="st0" d="M60,0L60,0c33.1,0,60,26.9,60,60v0c0,33.1-26.9,60-60,60l0,0C26.9,120,0,93.1,0,60v0C0,26.9,26.9,0,60,0z"/>
<g>
	<path class="st1" d="M44.6,73.9c0.5,0,1-0.4,1-1V61.3h2.9c0.5,0,1-0.4,1-1v-6.8c0-2.7-2.2-4.9-4.9-4.9h-0.5c0.9-1,1.5-2.4,1.5-3.9
		c0-3.2-2.6-5.8-5.8-5.8s-5.8,2.6-5.8,5.8c0,1.5,0.6,2.8,1.5,3.9h-0.5c-2.7,0-4.9,2.2-4.9,4.9v6.8c0,0.5,0.4,1,1,1h2.9v11.6
		c0,0.5,0.4,1,1,1H44.6z M35.9,44.8c0-2.1,1.7-3.9,3.9-3.9s3.9,1.7,3.9,3.9c0,2.1-1.7,3.9-3.9,3.9S35.9,46.9,35.9,44.8z M38.8,61.3
		v10.7h-2.9V53.5h-1.9v5.8H32v-5.8c0-1.6,1.3-2.9,2.9-2.9h9.7c1.6,0,2.9,1.3,2.9,2.9v5.8h-1.9v-5.8h-1.9v18.4h-2.9V61.3H38.8z"/>
	<path class="st1" d="M83.4,48.6h-0.5c0.9-1,1.5-2.4,1.5-3.9c0-3.2-2.6-5.8-5.8-5.8c-3.2,0-5.8,2.6-5.8,5.8c0,1.5,0.6,2.8,1.5,3.9
		h-0.5c-2.7,0-4.9,2.2-4.9,4.9v6.8c0,0.5,0.4,1,1,1h2.9v11.6c0,0.5,0.4,1,1,1h9.7c0.5,0,1-0.4,1-1V61.3h2.9c0.5,0,1-0.4,1-1v-6.8
		C88.3,50.8,86.1,48.6,83.4,48.6z M74.7,44.8c0-2.1,1.7-3.9,3.9-3.9s3.9,1.7,3.9,3.9c0,2.1-1.7,3.9-3.9,3.9S74.7,46.9,74.7,44.8z
		 M86.3,59.3h-1.9v-5.8h-1.9v18.4h-2.9V61.3h-1.9v10.7h-2.9V53.5h-1.9v5.8h-1.9v-5.8c0-1.6,1.3-2.9,2.9-2.9h9.7
		c1.6,0,2.9,1.3,2.9,2.9V59.3z"/>
	<path class="st1" d="M77.6,32.1v1.5l-2.2-2.2L74,32.8l3.9,3.9c0.2,0.2,0.4,0.3,0.7,0.3s0.5-0.1,0.7-0.3l3.9-3.9l-1.4-1.4l-2.2,2.2
		v-1.5c0-2.7-2.2-4.9-4.9-4.9H52.4v1.9h22.3C76.3,29.2,77.6,30.5,77.6,32.1z"/>
	<path class="st1" d="M40.7,32.1c0-1.6,1.3-2.9,2.9-2.9h6.8v-1.9h-6.8c-2.7,0-4.9,2.2-4.9,4.9V37h1.9V32.1z"/>
	<path class="st1" d="M40.7,80.7v-1.5l2.2,2.2l1.4-1.4l-3.9-3.9c-0.4-0.4-1-0.4-1.4,0L35.2,80l1.4,1.4l2.2-2.2v1.5
		c0,2.7,2.2,4.9,4.9,4.9h18.4v-1.9H43.6C42,83.6,40.7,82.3,40.7,80.7z"/>
	<rect x="64" y="83.6" class="st1" width="1.9" height="1.9"/>
	<path class="st1" d="M77.6,80.7c0,1.6-1.3,2.9-2.9,2.9h-6.8v1.9h6.8c2.7,0,4.9-2.2,4.9-4.9v-4.9h-1.9V80.7z"/>
</g>
</svg>
