<?xml version="1.0" encoding="utf-8"?>
<!-- Generator: Adobe Illustrator 26.3.1, SVG Export Plug-In . SVG Version: 6.00 Build 0)  -->
<svg version="1.1" id="Layer_1" xmlns="http://www.w3.org/2000/svg" xmlns:xlink="http://www.w3.org/1999/xlink" x="0px" y="0px"
	 viewBox="0 0 120 120" style="enable-background:new 0 0 120 120;" xml:space="preserve">
<style type="text/css">
	.st0{fill:#FFF2F3;}
	.st1{fill:#C12F33;}
</style>
<path class="st0" d="M60.5,0L60.5,0c33.1,0,60,26.9,60,60v0c0,33.1-26.9,60-60,60l0,0c-33.1,0-60-26.9-60-60v0
	C0.5,26.9,27.4,0,60.5,0z"/>
<g>
	<path class="st1" d="M44.8,40.6l-1.5-1.2c-0.6,0.8-1.2,1.6-1.6,2.5l1.7,0.9C43.8,42.1,44.3,41.3,44.8,40.6z"/>
	<path class="st1" d="M45.3,37.2l1.3,1.4c0.7-0.6,1.4-1.2,2.1-1.7l-1.1-1.6C46.8,35.9,46.1,36.6,45.3,37.2z"/>
	<path class="st1" d="M48.5,65.5l-1.7,0.8c0.4,0.8,0.8,1.7,1.1,2.5l1.8-0.7C49.3,67.3,48.9,66.4,48.5,65.5z"/>
	<path class="st1" d="M41.6,50.7l-1.9,0.1c0,1,0.1,2,0.3,3l1.9-0.4C41.7,52.4,41.6,51.6,41.6,50.7z"/>
	<path class="st1" d="M40.8,56.6c0.4,0.9,0.8,1.8,1.3,2.7l1.6-1c-0.5-0.8-0.9-1.6-1.2-2.4L40.8,56.6z"/>
	<path class="st1" d="M39.8,47.7l1.9,0.3c0.1-0.9,0.3-1.8,0.6-2.6l-1.8-0.6C40.2,45.7,40,46.7,39.8,47.7z"/>
	<path class="st1" d="M51.1,35.7c0.8-0.4,1.7-0.7,2.5-0.9L53.2,33c-1,0.2-1.9,0.6-2.8,1L51.1,35.7z"/>
	<path class="st1" d="M45.4,60.5l-1.5,1.2c0.6,0.7,1.1,1.5,1.6,2.2l1.6-1C46.6,62.1,46,61.3,45.4,60.5z"/>
	<rect x="50.9" y="80.4" class="st1" width="13.4" height="1.9"/>
	<rect x="52.9" y="84.2" class="st1" width="9.6" height="1.9"/>
	<path class="st1" d="M87.4,41.1V39c0-1.1-0.9-1.9-2-1.9c-0.2-0.6-0.4-1.1-0.7-1.7c0.8-0.8,0.8-2,0-2.7c0,0,0,0,0,0l-1.5-1.5
		c-0.4-0.4-0.9-0.6-1.4-0.6c-0.5,0-1,0.2-1.4,0.6c-0.5-0.3-1.1-0.5-1.7-0.7c0-1.1-0.9-1.9-1.9-1.9h-2.1c-1.1,0-1.9,0.9-1.9,1.9
		c0,0,0,0,0,0c-0.6,0.2-1.2,0.4-1.7,0.7c-0.8-0.7-2-0.7-2.7,0L67,32.7c-0.4,0.4-0.6,0.9-0.6,1.4c0,0.2,0,0.5,0.1,0.7
		c-2.1-1.2-4.5-2-6.9-2.2c-0.7-0.1-1.4-0.1-2.1-0.1c-0.5,0-1,0-1.5,0.1l0.2,1.9c0.4,0,0.9-0.1,1.4-0.1c0.6,0,1.2,0,1.8,0.1
		c7.4,0.8,13.3,6.7,14.2,14.1c0.5,4.3-0.9,8.6-3.7,11.9c-2.8,3.6-4.7,7.8-5.4,12.3h-3.1V56.4h1v1c0,0.5,0.4,1,1,1h3.8
		c0.5,0,1-0.4,1-1v-3.8c0-0.5-0.4-1-1-1h-3.8c-0.5,0-1,0.4-1,1v1h-1.9c-0.5,0-1,0.4-1,1v17.3h-1v-23c0-0.5-0.4-1-1-1h-1.9v-1
		c0-0.5-0.4-1-1-1h-3.8c-0.5,0-1,0.4-1,1v3.8c0,0.5,0.4,1,1,1h3.8c0.5,0,1-0.4,1-1v-1h1v22.1h-1V58.3c0-0.5-0.4-1-1-1h-1.9v-1
		c0-0.5-0.4-1-1-1h-3.8c-0.5,0-1,0.4-1,1v3.8c0,0.5,0.4,1,1,1h3.8c0.5,0,1-0.4,1-1v-1h1v13.4h-3c0,0,0-0.1,0-0.1l-0.9,0.1l0.9-0.1
		c-0.1-0.5-0.2-1-0.3-1.5l-1.9,0.4c0.1,0.5,0.2,0.9,0.3,1.3l0,0C49,73.4,49,74,49,74.6v2.9c0,0.5,0.4,1,1,1h15.4c0.5,0,1-0.4,1-1
		v-2.8c0.4-4.7,2.2-9.3,5.2-13c2.4-2.8,3.9-6.4,4.1-10.1h1.3c1.1,0,1.9-0.9,1.9-2c0.6-0.2,1.1-0.4,1.7-0.7c0.8,0.7,2,0.7,2.7,0
		l1.5-1.5c0.4-0.4,0.6-0.9,0.6-1.4c0-0.5-0.2-1-0.6-1.4c0.3-0.5,0.5-1.1,0.7-1.7C86.5,43.1,87.4,42.2,87.4,41.1z M64.4,54.5h1.9v1.9
		h-1.9V54.5z M53.8,50.6h-1.9v-1.9h1.9V50.6z M50.9,59.3H49v-1.9h1.9V59.3z M64.4,76.6H50.9v-1.9h13.4V76.6z M71.3,38.6
		c0.8-2.5,3.5-3.9,6-3.1c2.5,0.8,3.9,3.5,3.1,6c-0.6,2-2.5,3.3-4.6,3.3c-0.4,0-0.7-0.1-1.1-0.1C74.1,42.5,72.9,40.4,71.3,38.6z
		 M83.6,42.5c-0.1,0.5-0.3,0.9-0.6,1.3c-0.1,0.3-0.2,0.6-0.2,0.9c0,0.5,0.2,1,0.6,1.4l-1.5,1.5c-0.6-0.6-1.5-0.8-2.3-0.4
		c-0.4,0.2-0.9,0.4-1.3,0.6c-0.8,0.3-1.4,1-1.4,1.9h-1.3c0-0.4,0-0.9-0.1-1.3c-0.1-0.5-0.1-1.1-0.2-1.6c0.2,0,0.4,0,0.6,0
		c3.7,0,6.7-3,6.7-6.7c0-3.7-3-6.7-6.7-6.7c-2.6,0-4.9,1.5-6.1,3.8c-0.4-0.3-0.7-0.6-1.1-0.9c0.1-0.2,0.2-0.5,0.2-0.8
		c0-0.5-0.2-1-0.6-1.4l1.5-1.5c0.6,0.6,1.5,0.8,2.3,0.4c0.4-0.2,0.9-0.4,1.4-0.6c0.8-0.3,1.4-1,1.4-1.9l2.1,0c0,0.8,0.5,1.6,1.4,1.9
		c0.5,0.1,0.9,0.3,1.3,0.6c0.8,0.4,1.7,0.2,2.3-0.4l1.5,1.5c-0.6,0.6-0.8,1.5-0.4,2.3c0.2,0.4,0.4,0.9,0.6,1.3
		c0.3,0.8,1,1.4,1.9,1.4l0,2.1C84.6,41.1,83.9,41.7,83.6,42.5L83.6,42.5z"/>
</g>
</svg>
