<?xml version="1.0" encoding="utf-8"?>
<!-- Generator: Adobe Illustrator 26.3.1, SVG Export Plug-In . SVG Version: 6.00 Build 0)  -->
<svg version="1.1" id="Layer_1" xmlns="http://www.w3.org/2000/svg" xmlns:xlink="http://www.w3.org/1999/xlink" x="0px" y="0px"
	 viewBox="0 0 120 120" style="enable-background:new 0 0 120 120;" xml:space="preserve">
<style type="text/css">
	.st0{fill:#FFF2F3;}
	.st1{fill:#C12F33;}
</style>
<path class="st0" d="M60.5,0L60.5,0c33.1,0,60,26.9,60,60v0c0,33.1-26.9,60-60,60l0,0c-33.1,0-60-26.9-60-60v0
	C0.5,26.9,27.4,0,60.5,0z"/>
<g>
	<path class="st1" d="M90.4,58h-1.7c-0.3-10.5-6.3-19.3-15.3-23.2h11.2v1.7c0,0.6,0.5,1,1,1c0.6,0,1-0.5,1-1V31c0-0.6-0.5-1-1-1
		c-0.6,0-1,0.5-1,1v1.7H66.2V31c0-0.6-0.5-1-1-1h-5.5c-0.6,0-1,0.5-1,1v1.7H40.2V31c0-0.6-0.5-1-1-1s-1,0.5-1,1v5.5c0,0.6,0.5,1,1,1
		s1-0.5,1-1v-1.7h11.2c-9.6,4.1-15.8,13.5-15.9,23.9h-1.7c-0.6,0-1,0.5-1,1l0,0v5.5c0,0.6,0.5,1,1,1h5.5c0.6,0,1-0.5,1-1v-5.5
		c0-0.6-0.5-1-1-1l0,0h-1.7c0.1-12.1,9.2-22.2,21.2-23.8v1.6c0,0.6,0.5,1,1,1h1.8l-10.6,27c-0.1,0.2-0.1,0.5,0,0.7l3.8,10.4
		l-0.1,6.6c0,0.6,0.5,1,1,1c0,0,0,0,0,0h13c0.6,0,1-0.5,1-1v-6.6l4.7-10.3c0.1-0.3,0.1-0.5,0-0.8l-10.9-27h1.8c0.6,0,1-0.5,1-1v-1.6
		C77.8,36.5,86.2,46,86.6,58h-1.7c-0.6,0-1,0.5-1,1v5.5c0,0.6,0.5,1,1,1h5.5c0.6,0,1-0.5,1-1V59C91.4,58.5,91,58,90.4,58z
		 M38.2,64.1h-3.4v-3.4h3.4V64.1z M56.6,81.2l0-4.8h10.9v4.8H56.6z M67.9,74.4H56.3l-3.5-9.5l8.5-21.6v18.5c0,0.6,0.5,1,1,1
		c0.6,0,1-0.5,1-1V43.1l8.7,21.7L67.9,74.4z M64.1,35.5h-3.4v-3.4h3.4V35.5z M89.4,63.5H86v-3.4h3.4V63.5z"/>
</g>
</svg>
