<?xml version="1.0" encoding="utf-8"?>
<!-- Generator: Adobe Illustrator 26.3.1, SVG Export Plug-In . SVG Version: 6.00 Build 0)  -->
<svg version="1.1" id="Layer_1" xmlns="http://www.w3.org/2000/svg" xmlns:xlink="http://www.w3.org/1999/xlink" x="0px" y="0px"
	 viewBox="0 0 120 120" style="enable-background:new 0 0 120 120;" xml:space="preserve">
<style type="text/css">
	.st0{fill:#FFF2F3;}
	.st1{fill:#C12F33;}
</style>
<path class="st0" d="M60,0L60,0c33.1,0,60,26.9,60,60v0c0,33.1-26.9,60-60,60l0,0C26.9,120,0,93.1,0,60v0C0,26.9,26.9,0,60,0z"/>
<g id="_2">
	<path class="st1" d="M83.4,84.3H38.7c-3.1,0-5.6-2.5-5.6-5.6v-2.2c0-0.6,0.5-1.1,1.1-1.1h53.6c0.6,0,1.1,0.5,1.1,1.1v2.2
		C89,81.8,86.5,84.3,83.4,84.3z M35.4,77.6v1.1c0,1.9,1.5,3.3,3.3,3.3h44.7c1.9,0,3.3-1.5,3.3-3.3v-1.1H35.4z"/>
	<path class="st1" d="M65.5,81h-8.9c-0.6,0-1.1-0.5-1.1-1.1v-3.3c0-0.6,0.5-1.1,1.1-1.1c0.6,0,1.1,0.5,1.1,1.1v2.2h6.7v-2.2
		c0-0.6,0.5-1.1,1.1-1.1s1.1,0.5,1.1,1.1v3.3C66.6,80.5,66.1,81,65.5,81z"/>
	<path class="st1" d="M85.6,77.6H36.5c-0.6,0-1.1-0.5-1.1-1.1v-38c0-0.6,0.5-1.1,1.1-1.1h8.9c0.6,0,1.1,0.5,1.1,1.1
		s-0.5,1.1-1.1,1.1h-7.8v35.7h46.9V39.7h-3.3c-0.6,0-1.1-0.5-1.1-1.1s0.5-1.1,1.1-1.1h4.5c0.6,0,1.1,0.5,1.1,1.1v38
		C86.7,77.1,86.2,77.6,85.6,77.6z"/>
	<path class="st1" d="M76.7,69.8H45.4c-0.6,0-1.1-0.5-1.1-1.1V29.6c0-0.6,0.5-1.1,1.1-1.1h31.3c0.6,0,1.1,0.5,1.1,1.1v39.1
		C77.8,69.3,77.3,69.8,76.7,69.8z M46.5,67.6h29V30.7h-29V67.6z"/>
	<path class="st1" d="M55.5,47.5c-0.3,0-0.6-0.1-0.8-0.3l-4.5-4.5c-0.4-0.4-0.4-1.1,0-1.6l4.5-4.5c0.4-0.4,1.2-0.4,1.6,0
		c0.4,0.4,0.4,1.1,0,1.6l-3.7,3.7l3.7,3.7c0.4,0.4,0.4,1.1,0,1.6C56.1,47.4,55.8,47.5,55.5,47.5z"/>
	<path class="st1" d="M66.6,47.5c-0.6,0-1.1-0.5-1.1-1.1c0-0.3,0.1-0.6,0.3-0.8l3.7-3.7l-3.7-3.7c-0.4-0.4-0.4-1.2,0-1.6
		c0.4-0.4,1.1-0.4,1.6,0l4.5,4.5c0.4,0.4,0.4,1.1,0,1.6l-4.5,4.5C67.2,47.4,66.9,47.5,66.6,47.5z"/>
	<path class="st1" d="M58.8,47.5c-0.6,0-1.1-0.5-1.1-1.1c0-0.2,0-0.3,0.1-0.5l4.5-8.9c0.3-0.6,0.9-0.8,1.5-0.5
		c0.6,0.3,0.8,0.9,0.5,1.5l-4.5,8.9C59.6,47.2,59.3,47.5,58.8,47.5z"/>
	<path class="st1" d="M66.6,53.1H55.5c-0.6,0-1.1-0.5-1.1-1.1c0-0.6,0.5-1.1,1.1-1.1h11.2c0.6,0,1.1,0.5,1.1,1.1
		C67.8,52.6,67.3,53.1,66.6,53.1z"/>
	<path class="st1" d="M66.6,58.6H55.5c-0.6,0-1.1-0.5-1.1-1.1c0-0.6,0.5-1.1,1.1-1.1h11.2c0.6,0,1.1,0.5,1.1,1.1
		C67.8,58.1,67.3,58.6,66.6,58.6z"/>
	<path class="st1" d="M66.6,64.2H55.5c-0.6,0-1.1-0.5-1.1-1.1c0-0.6,0.5-1.1,1.1-1.1h11.2c0.6,0,1.1,0.5,1.1,1.1
		C67.8,63.7,67.3,64.2,66.6,64.2z"/>
</g>
</svg>
